<svg width="28" height="28" viewBox="0 0 28 28" fill="none" xmlns="http://www.w3.org/2000/svg">
<path fill-rule="evenodd" clip-rule="evenodd" d="M27.9973 13.6885C28.1525 21.5225 21.5808 28.0049 14.007 28C6.30963 27.9951 0.12696 21.5523 0.00199848 14.2306C-0.129309 6.53355 6.22714 -0.116035 13.9845 0.00176491C21.718 -0.123367 27.8538 6.42406 27.9973 13.6885Z" fill="#FFD66E"/>
<path fill-rule="evenodd" clip-rule="evenodd" d="M13.672 23.333C9.16231 23.2353 5.53252 19.9878 5.25637 15.5705C5.2452 15.3903 5.24278 15.1974 5.30005 15.0285C5.41216 14.6937 5.69219 14.5386 6.06493 14.594C6.48814 14.6574 6.62063 14.9362 6.68567 15.3083C6.82884 16.1301 6.90698 16.9839 7.21419 17.7556C8.32754 20.5504 11.5637 22.3325 14.7533 21.9923C18.0701 21.6383 20.7088 19.3477 21.216 16.3731C21.2723 16.0428 21.2966 15.7075 21.316 15.3731C21.3461 14.8631 21.6106 14.5724 22.0595 14.5842C22.508 14.596 22.771 14.896 22.7487 15.4158C22.638 17.9907 21.5009 20.0909 19.3057 21.6761C17.7323 22.8121 15.9235 23.3369 13.672 23.333Z" fill="#202E44"/>
<path fill-rule="evenodd" clip-rule="evenodd" d="M5.83334 10.8763C5.8578 9.53456 6.75985 8.24788 7.90505 7.78991C9.0606 7.32847 10.503 7.65906 11.3026 8.58045C11.7968 9.14895 12.1472 9.79725 12.2371 10.5789C12.3076 11.1955 12.0875 11.5925 11.6374 11.6579C11.184 11.7233 10.9061 11.4076 10.8492 10.7642C10.7641 9.79973 9.96782 9.03743 9.04131 9.03397C8.0833 9.03 7.27484 9.8146 7.20899 10.8485C7.18219 11.2708 7.04486 11.6167 6.63334 11.6267C6.39536 11.6321 6.12352 11.4423 5.92458 11.2668C5.82112 11.1756 5.84322 10.9258 5.83334 10.8763Z" fill="#202E44"/>
<path fill-rule="evenodd" clip-rule="evenodd" d="M21.5828 10.7279C21.5955 11.3007 21.364 11.6378 20.9387 11.6645C20.5162 11.6912 20.2664 11.3966 20.2142 10.8104C20.1252 9.81503 19.3301 9.04302 18.3886 9.03857C17.4236 9.03363 16.6563 9.79575 16.5641 10.8505C16.5179 11.3808 16.2474 11.6848 15.8385 11.6655C15.4264 11.6462 15.1639 11.3052 15.1667 10.7921C15.1751 9.11913 16.7057 7.58896 18.3764 7.58303C20.0452 7.57709 21.5447 9.04796 21.5828 10.7279Z" fill="#202E44"/>
</svg>
