<svg width="25" height="24" viewBox="0 0 25 24" fill="none" xmlns="http://www.w3.org/2000/svg">
<path fill-rule="evenodd" clip-rule="evenodd" d="M4.32198 12.9977L17.906 12.9977L14.611 16.2927C14.22 16.6837 14.22 17.3157 14.611 17.7067C15.002 18.0977 15.635 18.0977 16.025 17.7067L21.025 12.7067C21.416 12.3158 21.416 11.6837 21.026 11.2927L16.03 6.29275C15.834 6.09775 15.578 5.99975 15.322 5.99975C15.066 5.99975 14.81 6.09775 14.615 6.29275C14.224 6.68275 14.224 7.31575 14.614 7.70675L17.903 10.9977L4.32198 10.9977C3.76898 10.9977 3.32198 11.4447 3.32198 11.9977C3.32198 12.5507 3.76898 12.9977 4.32198 12.9977Z" fill="#FF7800"/>
</svg>
