<svg width="28" height="28" viewBox="0 0 28 28" fill="none" xmlns="http://www.w3.org/2000/svg">
<path fill-rule="evenodd" clip-rule="evenodd" d="M13.9845 0.00176491C21.718 -0.123367 27.8538 6.42406 27.9973 13.6885C28.1525 21.5225 21.5808 28.0049 14.007 28C6.30963 27.9951 0.12696 21.5523 0.00199848 14.2306C-0.129309 6.53355 6.22714 -0.116035 13.9845 0.00176491Z" fill="#FF6E6E"/>
<path fill-rule="evenodd" clip-rule="evenodd" d="M9.91238 10.7495C11.1989 10.7495 12.2427 11.7876 12.2496 13.0744C12.257 14.3637 11.2038 15.4167 9.90695 15.4162C8.6259 15.4157 7.58202 14.3662 7.58301 13.0799C7.58449 11.7921 8.62639 10.7495 9.91238 10.7495Z" fill="#202E44"/>
<path fill-rule="evenodd" clip-rule="evenodd" d="M18.6746 10.7495C19.9654 10.7495 21.0018 11.7906 20.9998 13.0848C20.9978 14.387 19.9574 15.4177 18.6469 15.4162C17.3632 15.4147 16.3297 14.3662 16.3332 13.069C16.3366 11.7792 17.376 10.7495 18.6746 10.7495Z" fill="#202E44"/>
<path fill-rule="evenodd" clip-rule="evenodd" d="M14.2841 17.7495C15.3596 17.7627 16.3214 18.0672 17.164 18.7397C17.5239 19.027 17.6028 19.4557 17.3606 19.7927C17.117 20.1323 16.6993 20.1784 16.3322 19.9067C15.0449 18.9541 13.5145 18.9571 12.2317 19.9144C11.8905 20.1687 11.4655 20.1236 11.2317 19.8079C10.9866 19.4775 11.0489 19.0427 11.3886 18.7635C12.241 18.0627 13.2248 17.7607 14.2841 17.7495Z" fill="#202E44"/>
<rect x="8.38574" y="7.98047" width="5.33571" height="1.18571" rx="0.592857" transform="rotate(18.9873 8.38574 7.98047)" fill="#202E44"/>
<rect width="5.33571" height="1.18571" rx="0.592857" transform="matrix(-0.945591 0.325358 0.325358 0.945591 20.0449 8)" fill="#202E44"/>
</svg>
