<svg width="48" height="48" viewBox="0 0 48 48" fill="none" xmlns="http://www.w3.org/2000/svg">
<rect width="48" height="48" rx="24" fill="#ECEDFF"/>
<path fill-rule="evenodd" clip-rule="evenodd" d="M12.0003 32C11.263 32 10.667 31.404 10.667 30.6667V17.3333C10.667 16.5973 11.263 16 12.0003 16H36.0003C36.7377 16 37.3337 16.5973 37.3337 17.3333V30.6667C37.3337 31.404 36.7377 32 36.0003 32L33.3337 32.0005H30.667L12.0003 32ZM31.222 18.6679H16.7786C16.1067 20.2053 14.8717 21.4403 13.3344 22.1122V25.8889C14.8717 26.5608 16.1067 27.7958 16.7786 29.3332H31.222C31.8941 27.7954 33.1296 26.5601 34.6676 25.8883V22.1127C33.1296 21.441 31.8941 20.2057 31.222 18.6679ZM24.0003 20C26.2097 20 28.0003 21.792 28.0003 24C28.0003 26.2093 26.2097 28 24.0003 28C21.791 28 20.0003 26.2093 20.0003 24C20.0003 21.792 21.791 20 24.0003 20ZM24.0003 22.6667C23.2643 22.6667 22.667 23.264 22.667 24C22.667 24.736 23.2643 25.3333 24.0003 25.3333C24.7363 25.3333 25.3337 24.736 25.3337 24C25.3337 23.264 24.7363 22.6667 24.0003 22.6667Z" fill="#4045DA"/>
</svg>
