<svg width="16" height="16" viewBox="0 0 16 16" fill="none" xmlns="http://www.w3.org/2000/svg">
<path fill-rule="evenodd" clip-rule="evenodd" d="M10.6666 1.33325C11.0085 1.33325 11.2903 1.59061 11.3288 1.92217L11.3333 1.99992V3.33325H13.9999C14.3681 3.33325 14.6666 3.63173 14.6666 3.99992V13.9999C14.6666 14.3681 14.3681 14.6666 13.9999 14.6666H1.99992C1.63173 14.6666 1.33325 14.3681 1.33325 13.9999V3.99992C1.33325 3.63173 1.63173 3.33325 1.99992 3.33325H4.66658V1.99992C4.66658 1.63173 4.96506 1.33325 5.33325 1.33325C5.67514 1.33325 5.95692 1.59061 5.99543 1.92217L5.99992 1.99992V3.33325H9.99992V1.99992C9.99992 1.63173 10.2984 1.33325 10.6666 1.33325ZM13.3333 7.33325H2.66659V13.3333H13.3333V7.33325ZM13.3333 4.66659H2.66659V5.99992H13.3333V4.66659Z" fill="#002A8D"/>
</svg>
