<svg width="16" height="16" viewBox="0 0 16 16" fill="none" xmlns="http://www.w3.org/2000/svg">
<path fill-rule="evenodd" clip-rule="evenodd" d="M10.6666 6.66667C12.8757 6.66667 14.6666 8.45753 14.6666 10.6667C14.6666 12.8758 12.8757 14.6667 10.6666 14.6667C8.45745 14.6667 6.66659 12.8758 6.66659 10.6667C6.66659 8.45753 8.45745 6.66667 10.6666 6.66667ZM10.6666 8C9.19383 8 7.99992 9.19391 7.99992 10.6667C7.99992 12.1394 9.19383 13.3333 10.6666 13.3333C12.1393 13.3333 13.3333 12.1394 13.3333 10.6667C13.3333 9.19391 12.1393 8 10.6666 8ZM12.4713 9.19526C12.7116 9.43558 12.7301 9.81374 12.5268 10.0753L12.4713 10.1381L10.4713 12.1381C10.231 12.3784 9.85285 12.3969 9.59132 12.1935L9.52851 12.1381L8.86185 11.4714C8.6015 11.2111 8.6015 10.7889 8.86185 10.5286C9.10217 10.2883 9.48032 10.2698 9.74185 10.4731L9.80466 10.5286L9.99992 10.7239L11.5285 9.19526C11.7889 8.93491 12.211 8.93491 12.4713 9.19526ZM13.3333 2C13.6751 2 13.9569 2.25736 13.9954 2.58892L13.9999 2.66667V6H2.66659V10.6667H5.33325C5.70144 10.6667 5.99992 10.9651 5.99992 11.3333C5.99992 11.6752 5.74256 11.957 5.411 11.9955L5.33325 12H1.99992C1.65803 12 1.37625 11.7426 1.33774 11.4111L1.33325 11.3333V2.66667C1.33325 2.32478 1.59061 2.043 1.92217 2.00449L1.99992 2H13.3333ZM4.66659 8.66667C5.03478 8.66667 5.33325 8.96514 5.33325 9.33333C5.33325 9.70152 5.03478 10 4.66659 10H3.99992C3.63173 10 3.33325 9.70152 3.33325 9.33333C3.33325 8.96514 3.63173 8.66667 3.99992 8.66667H4.66659ZM12.6666 3.33333H2.66659V4.66667H12.6666V3.33333Z" fill="#002A8D"/>
</svg>
