<svg width="48" height="48" viewBox="0 0 48 48" fill="none" xmlns="http://www.w3.org/2000/svg">
<rect width="48" height="48" rx="24" fill="#EBF4FF"/>
<path fill-rule="evenodd" clip-rule="evenodd" d="M22.7202 14.2401L23.2066 14.6667L25.7872 14.6678C30.3107 14.6678 33.8343 17.8809 34.5381 22.533L34.5413 22.532C34.624 22.4813 34.6653 22.4147 34.6653 22.332V21.3333C34.6666 20.596 35.264 20 36 20C36.684 20 37.248 20.5133 37.324 21.1773L37.3333 21.3333V22.6667C37.3333 24.072 36.2453 25.224 34.8653 25.3253L34.6666 25.3415C34.6198 26.589 34.447 27.4048 34.0381 28.5911L33.8923 29.0017L33.5773 29.8399L33.5039 30.1109L33.332 30.8598L33.3333 34.6702C33.3333 35.3014 32.8947 35.8301 32.3057 35.9683L32.1555 35.9946L32 36.0035H26.6666C25.9829 36.0035 25.4193 35.4888 25.3423 34.8257L25.3333 34.6702L25.332 33.3333H22.6653L22.6666 34.6702C22.6666 35.3014 22.2281 35.8301 21.639 35.9683L21.4888 35.9946L21.3333 36.0035H16C15.3162 36.0035 14.7526 35.4888 14.6756 34.8257L14.6666 34.6702V30.1332L14.6276 29.9539C14.575 29.7251 14.5219 29.5213 14.4625 29.3194L14.3681 29.0152L14.0106 28.0078L11.9997 28.0081C11.3685 28.0081 10.8398 27.5696 10.7016 26.9805L10.6754 26.8303L10.6664 26.6748V21.3446C10.6664 20.6608 11.1811 20.0972 11.8442 20.0202L11.9997 20.0007L14.4213 20L15.4347 18.8588L15.9986 18.1985L16 13.3493C16 12.7949 16.3407 12.3106 16.8364 12.1118L16.9896 12.0609L17.1373 12.0305L17.2923 12.0137C18.7804 11.8991 20.6852 12.4921 22.7202 14.2401ZM18.6653 14.8812L18.6666 18.6849C18.6666 18.997 18.5572 19.2991 18.3573 19.5388L17.4335 20.6242L17.0922 21.0155L16.0158 22.2316C15.799 22.475 15.5019 22.629 15.182 22.6681L15.0204 22.6779L13.332 22.6772V25.3412L14.9481 25.3415C15.4004 25.3415 15.8134 25.5697 16.0568 25.934L16.1398 26.0768L16.2055 26.2312L16.9034 28.1885C16.9867 28.4438 17.0594 28.6904 17.1273 28.9511L17.2263 29.3556L17.3051 29.7153L17.3333 29.988L17.332 33.3358H19.9986L20 32.0051C20 31.3739 20.4386 30.8451 21.0276 30.7069L21.1778 30.6807L21.3333 30.6717H26.6666C27.3504 30.6717 27.914 31.1865 27.991 31.8496L28 32.0051L27.9986 33.3358H30.6653L30.6666 30.7178L30.694 30.449L30.769 30.0977L30.8656 29.6748L30.9645 29.2799C31.0103 29.1093 31.0529 28.971 31.098 28.8541C31.8943 26.7928 31.9998 26.3122 31.9998 24.2697C31.9998 20.2475 29.4873 17.4754 26.0666 17.3333H22.6666C22.3101 17.3333 21.9683 17.2048 21.7178 16.951C20.7578 15.9786 19.8365 15.3522 18.9764 14.9983L18.6653 14.8812ZM19.3333 22C20.0706 22 20.6666 22.5973 20.6666 23.3333C20.6666 24.0693 20.0706 24.6667 19.3333 24.6667C18.5973 24.6667 18 24.0693 18 23.3333C18 22.5973 18.5973 22 19.3333 22Z" fill="#3D77FF"/>
</svg>
