<svg width="20" height="20" viewBox="0 0 20 20" fill="none" xmlns="http://www.w3.org/2000/svg">
<path fill-rule="evenodd" clip-rule="evenodd" d="M13.3263 1.66663C13.9796 1.85504 13.9796 1.85504 14.168 2.50829V6.66663C14.168 7.12686 13.7949 7.49996 13.3346 7.49996C12.8744 7.49996 12.5013 7.12686 12.5013 6.66663V3.33329H7.5013V6.65829C7.32397 7.27312 7.31354 7.30929 6.76831 7.46849L6.65964 7.49996L3.33464 7.49913V16.6666H7.5013C7.96154 16.6666 8.33464 17.0397 8.33464 17.5C8.33464 17.9602 7.96154 18.3333 7.5013 18.3333H2.50964C1.85638 18.1449 1.85638 18.1449 1.66797 17.4916V5.86781C1.66797 5.6247 1.76455 5.39154 1.93645 5.21963L5.22097 1.93511C5.39288 1.7632 5.62604 1.66663 5.86915 1.66663H13.3263ZM13.3346 8.33329C16.0961 8.33329 18.3346 10.5719 18.3346 13.3333C18.3346 16.0947 16.0961 18.3333 13.3346 18.3333C10.5732 18.3333 8.33464 16.0947 8.33464 13.3333C8.33464 10.5719 10.5732 8.33329 13.3346 8.33329ZM13.3346 9.99996C11.4937 9.99996 10.0013 11.4923 10.0013 13.3333C10.0013 15.1742 11.4937 16.6666 13.3346 16.6666C15.1756 16.6666 16.668 15.1742 16.668 13.3333C16.668 11.4923 15.1756 9.99996 13.3346 9.99996ZM12.6739 11.494L13.3346 12.1544L13.9954 11.494C14.3208 11.1686 14.8485 11.1686 15.1739 11.494C15.4993 11.8195 15.4993 12.3471 15.1739 12.6725L14.513 13.3327L15.1739 13.994C15.4993 14.3195 15.4993 14.8471 15.1739 15.1725C14.8735 15.473 14.4008 15.4961 14.0739 15.2419L13.9954 15.1725L13.3346 14.5119L12.6739 15.1725C12.3485 15.498 11.8208 15.498 11.4954 15.1725C11.1699 14.8471 11.1699 14.3195 11.4954 13.994L12.1555 13.3327L11.4954 12.6725C11.1699 12.3471 11.1699 11.8195 11.4954 11.494C11.7958 11.1936 12.2685 11.1705 12.5954 11.4247L12.6739 11.494ZM5.83464 3.67829L3.68047 5.83246L5.83464 5.83329V3.67829Z" fill="#002A8D"/>
</svg>
