<svg width="20" height="20" viewBox="0 0 20 20" fill="none" xmlns="http://www.w3.org/2000/svg">
<path fill-rule="evenodd" clip-rule="evenodd" d="M9.44621 1.87712C9.76195 1.59646 10.2377 1.59646 10.5535 1.87712L18.0535 8.54379C18.3975 8.84955 18.4285 9.37628 18.1227 9.72026C17.8169 10.0642 17.2902 10.0952 16.9462 9.78947L16.6665 9.54079L16.6665 17.5C16.6665 17.9273 16.3448 18.2796 15.9304 18.3277L15.8332 18.3333H11.6665C11.2063 18.3333 10.8332 17.9602 10.8332 17.5V14.1666H9.16651V17.5C9.16651 17.9602 8.79342 18.3333 8.33318 18.3333H4.16651C3.70628 18.3333 3.33318 17.9602 3.33318 17.5L3.33317 9.53996L3.05348 9.78947C2.73596 10.0717 2.26272 10.067 1.9513 9.79408L1.87701 9.72026C1.57124 9.37628 1.60222 8.84955 1.94621 8.54379L9.44621 1.87712ZM9.99985 3.61492L4.99984 8.05829L4.99985 16.6666H7.49985V13.3333C7.49985 12.8731 7.87294 12.5 8.33318 12.5H11.6665C12.1267 12.5 12.4998 12.8731 12.4998 13.3333V16.6666H14.9998L14.9998 8.05913L9.99985 3.61492Z" fill="#002A8D"/>
</svg>
