<svg width="24" height="24" viewBox="0 0 24 24" fill="none" xmlns="http://www.w3.org/2000/svg">
<path fill-rule="evenodd" clip-rule="evenodd" d="M6.001 4C7.10419 4 8.00005 4.89665 8.00005 5.99938C8.00005 7.1034 7.10419 8.00005 6.001 8.00005C4.89263 8.00005 4 7.1034 4 5.99938C4 4.89665 4.89263 4 6.001 4Z" fill="#202E44"/>
<path fill-rule="evenodd" clip-rule="evenodd" d="M8.00005 9.31348V19.9803H4V9.31348H8.00005Z" fill="#202E44"/>
<path fill-rule="evenodd" clip-rule="evenodd" d="M15.898 9.33301C19.2548 9.33301 19.9584 11.3593 19.998 14.0381L19.9998 19.9998H16.5811L16.5796 14.6309C16.5651 13.4839 16.4107 12.1792 14.8035 12.1792C13.0221 12.1792 12.7504 13.4938 12.7504 14.8515V19.9998H9.33301V9.5923H12.6133V11.0142H12.6601C13.1163 10.1957 14.2332 9.33301 15.898 9.33301Z" fill="#202E44"/>
</svg>
