<svg width="17" height="16" viewBox="0 0 17 16" fill="none" xmlns="http://www.w3.org/2000/svg">
<path d="M15.4789 15.4909L14.9776 0.453124C14.9691 0.200468 14.7619 0 14.5091 0H2.4591C2.20629 0 1.99901 0.200468 1.9906 0.453124L1.48854 15.5156C1.48432 15.6426 1.53182 15.7658 1.62013 15.8571C1.70845 15.9484 1.83004 16 1.95704 16H15.0112C15.0115 16 15.0116 16 15.0118 16C15.2707 16 15.4806 15.7901 15.4806 15.5312C15.4806 15.5176 15.48 15.5042 15.4789 15.4909ZM8.48409 6.96249C6.5645 6.96249 5.00285 5.4008 5.00285 3.48124C5.00285 3.22237 5.21272 3.01249 5.47159 3.01249C5.73047 3.01249 5.94034 3.22237 5.94034 3.48124C5.94034 4.8839 7.0815 6.02499 8.48409 6.02499C9.88671 6.02499 11.0278 4.88387 11.0278 3.48124C11.0278 3.22237 11.2377 3.01249 11.4966 3.01249C11.7555 3.01249 11.9653 3.22237 11.9653 3.48124C11.9653 5.4008 10.4037 6.96249 8.48409 6.96249Z" fill="white"/>
</svg>
