<svg width="24" height="24" viewBox="0 0 24 24" fill="none" xmlns="http://www.w3.org/2000/svg">
<path d="M20.6291 7.87771C20.4217 7.14347 19.8137 6.56467 19.0427 6.36696C17.6341 6 11.9998 6 11.9998 6C11.9998 6 6.36567 6 4.95711 6.35305C4.20092 6.55055 3.5781 7.14357 3.37068 7.87771C3 9.21879 3 12 3 12C3 12 3 14.7952 3.37068 16.1223C3.57832 16.8564 4.18609 17.4352 4.95722 17.6329C6.3805 18 12 18 12 18C12 18 17.6341 18 19.0427 17.6469C19.8138 17.4493 20.4217 16.8705 20.6294 16.1364C20.9999 14.7952 20.9999 12.0141 20.9999 12.0141C20.9999 12.0141 21.0148 9.21879 20.6291 7.87771ZM10.2059 14.5694V9.43062L14.8912 12L10.2059 14.5694Z" fill="#202E44"/>
</svg>
