<svg width="17" height="16" viewBox="0 0 17 16" fill="none" xmlns="http://www.w3.org/2000/svg">
<path d="M11.4987 0C10.6457 0.0589997 9.64869 0.604996 9.06769 1.31599C8.5377 1.96099 8.1017 2.91898 8.2717 3.84998C9.20369 3.87898 10.1667 3.31998 10.7247 2.59698C11.2467 1.92399 11.6417 0.971994 11.4987 0Z" fill="white"/>
<path d="M14.8696 5.36713C14.0506 4.34014 12.8996 3.74414 11.8126 3.74414C10.3776 3.74414 9.77059 4.43114 8.7736 4.43114C7.7456 4.43114 6.96461 3.74614 5.72362 3.74614C4.50462 3.74614 3.20663 4.49114 2.38364 5.76513C1.22664 7.55912 1.42464 10.9321 3.29963 13.8051C3.97063 14.8331 4.86662 15.9891 6.03861 15.9991C7.08161 16.0091 7.37561 15.3301 8.7886 15.3231C10.2016 15.3151 10.4696 16.0081 11.5106 15.9971C12.6836 15.9881 13.6286 14.7071 14.2996 13.6791C14.7806 12.9421 14.9596 12.5711 15.3326 11.7391C12.6196 10.7061 12.1846 6.84812 14.8696 5.36713Z" fill="white"/>
</svg>
