<svg width="16" height="16" viewBox="0 0 16 16" fill="none" xmlns="http://www.w3.org/2000/svg">
<g clip-path="url(#clip0_3220_49950)">
<path d="M3.47703 0.255883C2.85106 -0.0900969 2.11611 -0.0820973 1.49414 0.260883L8.78373 6.9855L11.2326 4.53664L3.47703 0.255883Z" fill="white"/>
<path d="M0.764359 0.949219C0.586369 1.2402 0.484375 1.57318 0.484375 1.92616V14.0715C0.484375 14.4135 0.57737 14.7394 0.74536 15.0244L8.07595 7.69384L0.764359 0.949219Z" fill="white"/>
<path d="M14.4803 6.32799L12.1444 5.03906L9.51953 7.66292L12.7363 10.6298L14.4813 9.66681C15.1092 9.31883 15.4852 8.69486 15.4852 7.9969C15.4842 7.29894 15.1092 6.67497 14.4803 6.32799Z" fill="white"/>
<path d="M8.81152 8.37109L1.46094 15.7217C1.77992 15.9037 2.1299 15.9997 2.48188 15.9997C2.82186 15.9997 3.16384 15.9137 3.47682 15.7407L11.8134 11.1399L8.81152 8.37109Z" fill="white"/>
</g>
<defs>
<clipPath id="clip0_3220_49950">
<rect width="16" height="16" fill="white"/>
</clipPath>
</defs>
</svg>
