<svg width="24" height="24" viewBox="0 0 24 24" fill="none" xmlns="http://www.w3.org/2000/svg">
<path fill-rule="evenodd" clip-rule="evenodd" d="M14.2298 10.72C16.1298 8.43 20.6498 3 20.6498 3H17.9098C17.6298 3.32 13.9798 7.76 13.0198 8.9L9.06977 3H3.11977L9.69977 12.9C9.49977 13.15 3.00977 20.97 3.00977 20.97H5.71977C5.71977 20.97 10.2998 15.44 10.9098 14.72C12.2198 16.71 15.1098 20.97 15.1098 20.97H20.9998C20.9998 20.97 16.3198 13.85 14.2398 10.72H14.2298ZM16.2598 18.9C16.2598 18.9 16.1898 18.85 15.9998 18.55C15.9798 18.51 15.9498 18.47 15.9298 18.43C15.7598 18.16 15.5198 17.78 15.1498 17.27C12.4098 13.21 9.65977 9.15 6.91977 5.1H7.88977C8.34977 5.79 8.81977 6.48 9.27977 7.17C9.55977 7.57 9.82977 7.98 10.0998 8.38C11.3098 10.19 12.5198 11.97 13.7298 13.75C14.8998 15.47 16.0598 17.18 17.2198 18.92H16.9198C16.8098 18.92 16.7198 18.92 16.6398 18.92C16.3098 18.92 16.2698 18.9 16.2598 18.89V18.9Z" fill="#202E44"/>
</svg>
