<svg width="109" height="29" viewBox="0 0 109 29" fill="none" xmlns="http://www.w3.org/2000/svg">
    <path fill-rule="evenodd" clip-rule="evenodd" d="M26.7235 22.4392C26.7235 22.4392 26.5164 23.4291 27.4229 23.511C27.8813 23.5258 28.3687 23.5258 28.8808 23.5258C32.1494 23.5258 35.1395 22.3148 35.2065 19.3404C35.2681 16.7042 32.9411 15.9096 30.137 15.9096H28.1585L26.7235 22.4392ZM41.5527 19.4858C41.5527 23.4309 38.2673 28.6357 26.9041 27.9951C25.5724 27.9193 24.7541 27.8084 23.5528 27.5109C19.2727 26.4491 20.7783 21.3582 20.7783 21.3582L25.1334 1.65842C27.5298 1.26483 30.2174 1.02584 32.978 1.02584C39.0554 1.02584 43.0825 3.21183 43.0825 7.30295C43.0825 11.1335 39.4148 13.2154 36.6385 13.6872C38.8386 13.8529 41.5527 15.5647 41.5527 19.4858ZM30.4414 5.60047L29.3428 10.6759C29.3428 10.6759 29.0699 11.7624 30.0005 11.7624H31.2821C34.579 11.7624 36.8625 10.4603 36.9199 8.1665C36.9664 6.27432 35.3503 5.45449 33.0553 5.45449C32.0062 5.45449 30.9046 5.52656 30.4414 5.60047ZM69.3378 28.0662H65.7305L71.4504 1.80464C73.8161 1.24721 76.3061 1.13696 79.1899 1.16159C86.2289 1.18993 89.4557 3.90441 89.4557 8.63611C89.4557 12.9718 86.0701 19.3511 76.3345 19.3511C75.3374 19.3511 74.4798 19.2359 73.8608 19.1941C73.8608 19.1941 73.0678 22.8454 72.5961 24.9969C72.0018 27.6978 70.2607 28.0662 69.3378 28.0662ZM77.1631 5.79167L75.573 13.114C75.573 13.114 75.0602 14.6705 76.8907 14.6705C77.1166 14.6804 77.3618 14.6872 77.6318 14.6872C81.7241 14.6551 83.8258 11.9333 83.8258 9.11532C83.8258 6.34294 81.9476 5.66109 79.6864 5.66109C78.5317 5.66109 77.665 5.71652 77.1631 5.79167ZM51.4509 16.4637C51.4509 20.6091 53.8117 23.2595 57.8617 23.2595C59.5292 23.2595 61.3513 22.9743 63.8087 21.1363L62.8455 25.5514C62.8455 25.5514 62.5779 27.0162 60.9817 27.5853C59.685 28.0811 58.3171 28.3066 56.2438 28.3066C50.4683 28.3066 44.8323 25.4067 44.8323 16.8142C44.8323 8.77673 49.8824 0.607422 59.6313 0.607422C61.544 0.607422 62.8962 0.882134 64.6277 1.45189C67.2977 2.33023 67.622 3.8048 67.4451 4.68869C67.2645 5.59351 66.6346 7.76781 66.6346 7.76781C64.955 6.23779 62.0295 5.80725 60.4031 5.80725C54.1716 5.80725 51.4509 12.1891 51.4509 16.4637ZM107.251 10.1432C107.447 10.4148 109.777 13.3726 107.631 16.87C105.283 20.6968 98.873 25.059 97.0569 25.7131C93.5251 27.2203 91.1341 24.4252 90.9299 24.132C90.271 23.2666 90.111 23.0836 89.7921 22.4523C89.7299 22.557 96.5726 19.311 99.0234 15.1114C101.678 11.5045 101.91 4.42907 99.0101 3.09862C99.887 3.54888 101.953 4.7586 103.817 6.45307C105.678 8.06131 107.286 10.1703 107.251 10.1432ZM99.1173 13.0325C96.9383 10.6229 94.6397 9.16619 92.9426 8.3359C92.9426 8.3359 92.1158 7.91767 91.684 7.67745C92.3133 6.2349 93.1413 5.20442 93.1413 5.20442C93.2585 5.04859 95.7667 2.04277 97.9729 3.0985C100.383 4.20412 100.628 9.27891 99.1173 13.0325ZM17.9257 10.1432C18.122 10.4148 20.452 13.3726 18.3062 16.87C15.9575 20.6968 9.54782 25.059 7.73176 25.7131C4.19991 27.2203 1.8089 24.4252 1.60477 24.132C0.94587 23.2666 0.785825 23.0836 0.466944 22.4523C0.404738 22.557 7.2474 19.311 9.6982 15.1114C12.3531 11.5045 12.5844 4.42907 9.68491 3.09862C10.5618 3.54888 12.6279 4.7586 14.4923 6.45307C16.3524 8.06131 17.9607 10.1703 17.9257 10.1432ZM9.79219 13.0325C7.61317 10.6229 5.31456 9.16619 3.61749 8.3359C3.61749 8.3359 2.79069 7.91767 2.35887 7.67745C2.98818 6.2349 3.81618 5.20442 3.81618 5.20442C3.93335 5.04859 6.44152 2.04277 8.64772 3.0985C11.0574 4.20412 11.3026 9.27891 9.79219 13.0325Z" fill="#ACB2BD"/>
    </svg>
    