<svg width="28" height="28" viewBox="0 0 28 28" fill="none" xmlns="http://www.w3.org/2000/svg">
<path fill-rule="evenodd" clip-rule="evenodd" d="M27.9973 13.6885C28.1525 21.5225 21.5808 28.0049 14.007 28C6.30963 27.9951 0.12696 21.5523 0.00199848 14.2306C-0.129309 6.53355 6.22714 -0.116035 13.9845 0.00176491C21.718 -0.123367 27.8538 6.42406 27.9973 13.6885Z" fill="#FFBB6E"/>
<path fill-rule="evenodd" clip-rule="evenodd" d="M14.2006 18.9471C16.2181 18.9471 18.2361 18.9471 20.2536 18.9476C20.4037 18.9476 20.5591 18.9321 20.7024 18.9655C21.0723 19.0527 21.2771 19.2982 21.2655 19.6836C21.2544 20.0457 21.0505 20.2718 20.7 20.3488C20.5722 20.3769 20.4342 20.3653 20.3015 20.3653C16.1992 20.3662 12.0969 20.3662 7.99512 20.3657C7.8949 20.3657 7.79419 20.3716 7.69494 20.3609C7.28873 20.3173 7.05778 20.0893 7.0326 19.6811C7.00888 19.288 7.28243 18.9893 7.69784 18.9534C7.91281 18.935 8.13068 18.9471 8.34759 18.9471C10.2988 18.9471 12.2499 18.9471 14.2006 18.9471Z" fill="#202E44"/>
<path fill-rule="evenodd" clip-rule="evenodd" d="M9.44881 9.61369C10.8098 9.60594 11.9079 10.6822 11.9219 12.0379C11.9359 13.3751 10.8316 14.4931 9.48367 14.5071C8.13576 14.5212 7.03187 13.4284 7.02509 12.0727C7.01783 10.7031 8.08347 9.62144 9.44881 9.61369Z" fill="#202E44"/>
<path fill-rule="evenodd" clip-rule="evenodd" d="M18.8135 9.61336C20.1798 9.60271 21.2667 10.6722 21.2745 12.0356C21.2822 13.3971 20.2088 14.4927 18.8527 14.5068C17.514 14.5208 16.3917 13.4179 16.3772 12.0744C16.3627 10.7269 17.454 9.62401 18.8135 9.61336Z" fill="#202E44"/>
</svg>
