<svg width="375" height="343" viewBox="0 0 375 343" fill="none" xmlns="http://www.w3.org/2000/svg">
<mask id="mask0_36608_113860" style="mask-type:alpha" maskUnits="userSpaceOnUse" x="0" y="0" width="375" height="343">
<rect width="375" height="343" fill="#D9D9D9"/>
</mask>
<g mask="url(#mask0_36608_113860)">
<path fill-rule="evenodd" clip-rule="evenodd" d="M0 -55V254.218C0 254.218 137.875 381.435 375 186.489V-55H0Z" fill="#2B09D3"/>
<mask id="mask1_36608_113860" style="mask-type:alpha" maskUnits="userSpaceOnUse" x="0" y="-55" width="375" height="350">
<path fill-rule="evenodd" clip-rule="evenodd" d="M0 -55V254.218C0 254.218 137.875 381.435 375 186.489V-55H0Z" fill="white"/>
</mask>
<g mask="url(#mask1_36608_113860)">
<path fill-rule="evenodd" clip-rule="evenodd" d="M263.874 300.99C262.124 300.028 201.768 263.123 247.054 224.106C264.997 208.648 286.221 203.306 279.898 150.26C273.575 97.2132 288.601 30.7945 375 23.6837V279.593L263.874 300.99Z" fill="#3920ED"/>
<path fill-rule="evenodd" clip-rule="evenodd" d="M277.829 294.515C277.829 294.515 234.652 267.558 275.227 242.728C309.537 221.732 312.544 234.333 328.103 187C334.912 140.147 321.044 108.607 375 94.8602C374.483 165.681 375 275.557 375 275.557L277.829 294.515Z" fill="#462DFC"/>
<path fill-rule="evenodd" clip-rule="evenodd" d="M-0.323242 269.862C-0.323242 269.862 72.9742 282.515 108.511 215.019C144.048 147.523 93.6207 121.735 120.799 80.628C158.819 23.1217 280.144 88.7757 286.677 -55.1974L5.20647e-05 -55.173L-0.323242 269.862Z" fill="#3920ED"/>
<path fill-rule="evenodd" clip-rule="evenodd" d="M0 188.116C0 188.116 25.3095 186.032 49.3399 157.849C78.51 123.637 43.4775 94.9608 66.1422 43.6646C97.2053 -26.641 188.294 25.4176 227.531 -55C224.55 -54.8115 217.504 -55.4068 193.495 -55C150.722 -55.3892 0 -55 0 -55L0 188.116Z" fill="#462DFC"/>
</g>
</g>
<path fill-rule="evenodd" clip-rule="evenodd" d="M198.408 59.6146C198.408 59.6146 187.574 47.2682 168.343 57.8674C154.998 65.2219 149.712 88.1481 168.091 101.86L183.65 106.43L217.003 125.198C217.003 125.198 218.572 127.834 225.062 127.921C235.856 128.065 247.136 119.752 247.816 112.167C248.63 103.097 235.24 105.412 232.432 104.098C239.056 103.636 242.245 99.3526 238.397 99.8174C229.547 100.888 214.377 102.565 214.669 83.0187C214.908 67.0404 208.261 58.6173 198.408 59.6146Z" fill="#FD5C00"/>
<path fill-rule="evenodd" clip-rule="evenodd" d="M185.478 67L185.495 67.1808L185.505 67.395L185.508 67.5296L185.506 67.7631L185.499 67.9384L185.488 68.1283L185.471 68.3317L185.446 68.5477L185.415 68.7754C185.409 68.8142 185.402 68.8535 185.395 68.8932L185.35 69.1364L185.296 69.3888L185.23 69.6493C184.778 71.3228 183.628 73.4281 180.779 74.8395L180.914 74.8418L181.25 74.8363L181.494 74.8252L181.781 74.8058L181.996 74.7871L182.228 74.7631L182.606 74.7158L182.877 74.6757L183.162 74.6281L183.46 74.5723L183.77 74.5077L184.092 74.4337C184.201 74.4074 184.311 74.3794 184.424 74.3496L184.765 74.2547L185.115 74.1486C185.469 74.0365 185.834 73.9065 186.206 73.7556L186.581 73.5977C188.715 72.6622 191.036 71.0272 192.788 68.1726L192.802 68.4387L192.834 68.796L192.879 69.1762L192.926 69.5111L192.988 69.8849L193.039 70.1541L193.096 70.4381L193.162 70.7359L193.237 71.0464C193.25 71.0992 193.264 71.1525 193.278 71.2062L193.366 71.5341C193.382 71.5897 193.398 71.6456 193.414 71.702L193.518 72.045C193.537 72.103 193.555 72.1613 193.575 72.2199L193.695 72.5758L193.827 72.9389L193.972 73.3084C194.676 75.0459 195.797 76.9571 197.583 78.5858L197.777 78.7592C199.651 80.4026 200.586 82.2439 201.028 83.8917L201.113 84.2298C201.165 84.4531 201.208 84.6723 201.243 84.8862L201.291 85.203C201.305 85.3072 201.317 85.41 201.328 85.5112L201.356 85.8101L201.374 86.0988C201.377 86.146 201.379 86.1928 201.38 86.2391L201.387 86.5111L201.386 86.8963L201.378 87.1367L201.358 87.4708L201.332 87.7708L201.29 88.1132L201.23 88.4911L201.191 88.7089L201.189 88.7292L201.155 88.9356C201.152 88.9542 201.15 88.9737 201.148 88.9938L201.137 89.1229C201.124 89.441 201.199 89.8652 201.668 90.1403C202.238 90.4742 202.649 90.2332 202.967 89.8786L203.076 89.7494C203.093 89.7274 203.11 89.7051 203.127 89.6828L203.225 89.548L203.57 89.0374L204.831 87.1141L204.987 86.8685C204.99 86.8625 204.992 86.8587 204.993 86.8574L205.064 86.756L205.13 86.6729L205.216 86.5757C205.489 86.2872 205.995 85.9139 206.646 86.1652L206.766 86.2182L206.814 86.248L206.87 86.288L206.939 86.3445L207.016 86.4176C207.267 86.6756 207.553 87.1872 207.105 87.9849L207.017 88.1307L206.755 88.5289L206.519 88.905L206.307 89.2555L206.07 89.6591L205.902 89.9555L205.727 90.2721L205.548 90.6074L205.365 90.9601L205.18 91.3287C205.149 91.3914 205.118 91.4547 205.088 91.5186L204.904 91.9086L204.722 92.311L204.545 92.7245L204.373 93.1477L204.208 93.5791L204.053 94.0173C203.552 95.4881 203.229 97.0496 203.357 98.4684L203.43 99.2423L203.481 99.7433L203.536 100.234L203.596 100.716L203.662 101.191L203.736 101.66C204.214 104.535 205.183 107.158 207.927 111.057L208.154 111.376C208.421 111.749 208.678 112.114 208.929 112.473L209.668 113.529C209.789 113.702 209.91 113.874 210.031 114.044L210.272 114.382L210.514 114.716L210.884 115.216L211.269 115.719L211.53 116.049L211.797 116.377L212.07 116.702L212.35 117.025L212.638 117.344C212.735 117.451 212.834 117.556 212.935 117.662L213.242 117.977L213.56 118.29L213.89 118.602C214.786 119.43 215.817 120.24 217.065 121.047L217.543 121.349C218.601 122.004 219.809 122.659 221.207 123.32L221.867 123.625C222.091 123.727 222.32 123.83 222.554 123.932L223.271 124.24L224.017 124.55C224.144 124.602 224.273 124.653 224.402 124.705L225.195 125.017L226.306 125.444L227.002 125.719C227.118 125.765 227.233 125.811 227.348 125.858L228.037 126.139L228.72 126.426C228.947 126.523 229.174 126.621 229.4 126.72L230.075 127.02L230.748 127.327L231.417 127.642L232.084 127.965L232.748 128.297L233.411 128.638L234.073 128.99C234.184 129.049 234.294 129.109 234.404 129.169L235.065 129.536C235.175 129.598 235.285 129.661 235.395 129.724L236.056 130.108C236.276 130.238 236.497 130.37 236.717 130.504L237.379 130.913C237.6 131.051 237.821 131.192 238.043 131.335L238.708 131.77L239.376 132.22C240.044 132.677 240.717 133.156 241.396 133.659L242.077 134.171C242.759 134.691 243.449 135.236 244.147 135.81L244.847 136.392C244.965 136.491 245.082 136.59 245.2 136.691L245.91 137.302C247.456 138.647 249.049 140.133 250.709 141.782L251.48 142.556C251.609 142.686 251.739 142.818 251.869 142.951L252.655 143.76C252.787 143.897 252.919 144.035 253.052 144.174L253.854 145.02C253.989 145.164 254.124 145.308 254.259 145.453L255.078 146.338L255.909 147.249C256.468 147.865 257.034 148.499 257.609 149.152L258.478 150.145C258.624 150.313 258.771 150.482 258.918 150.653L259.808 151.689C259.957 151.864 260.107 152.04 260.258 152.218L261.17 153.298L262.096 154.408L263.262 155.819L264.441 157.254L265.632 158.713L266.835 160.194L274.304 169.431L276.236 171.807L278.192 174.199L279.51 175.798C279.731 176.065 279.952 176.332 280.173 176.599L281.507 178.202L282.851 179.805L284.206 181.405L285.57 183.002C294.474 193.365 304.012 203.382 314.007 210.899C314.112 210.38 314.277 209.861 314.507 209.344C314.92 208.417 315.531 207.559 316.337 206.784C317.235 205.921 318.245 205.304 319.337 204.933C321.576 204.171 323.839 204.481 325.965 205.409C326.72 205.738 327.302 206.076 327.674 206.336C328.729 207.071 329.049 208.464 328.466 209.572C329.58 209.082 330.917 209.458 331.601 210.511C331.811 210.836 332.081 211.331 332.344 211.969C333.003 213.57 333.276 215.254 332.884 216.955C332.595 218.204 331.955 219.341 330.958 220.29C329.654 221.532 328.145 222.208 326.5 222.394L326.407 222.491C328.203 223.567 330.017 224.611 331.831 225.619L332.826 226.168L333.789 226.692L334.72 227.191L335.615 227.665L336.712 228.235L337.572 228.674L338.201 228.988C339.793 229.766 340.452 231.686 339.672 233.275C338.892 234.864 336.968 235.522 335.376 234.743L334.974 234.544L334.608 234.359C334.742 235.007 334.677 235.702 334.377 236.349C333.654 237.906 331.837 238.611 330.261 237.974L330.061 237.887L329.208 237.481L328.522 237.147L328.269 237.022C328.292 237.54 328.189 238.072 327.944 238.57C327.164 240.16 325.241 240.817 323.648 240.039L322.947 239.689L321.79 239.097L320.899 238.632L319.97 238.141L319.006 237.624L318.009 237.081L316.98 236.514C312.17 233.843 307.359 230.922 302.836 227.832L302.076 227.358L301.291 226.862L300.482 226.344L299.648 225.804C299.507 225.712 299.365 225.619 299.222 225.525L298.354 224.952L297.463 224.357L296.55 223.739C296.396 223.634 296.241 223.529 296.085 223.422L295.14 222.771C294.981 222.661 294.821 222.55 294.66 222.437L293.685 221.753L292.69 221.047L291.676 220.318C291.505 220.194 291.334 220.07 291.162 219.945L290.12 219.182L289.061 218.397C288.883 218.264 288.704 218.13 288.525 217.996L287.44 217.177L286.34 216.335L285.224 215.471C285.036 215.325 284.849 215.178 284.66 215.03L283.522 214.132C283.331 213.98 283.139 213.828 282.947 213.674L281.788 212.742C281.594 212.584 281.399 212.426 281.203 212.267L280.025 211.3L278.833 210.31L277.63 209.297L276.416 208.262C266.661 199.884 255.891 189.294 245.453 176.388L245.468 176.971L245.473 177.56L245.472 178.339L245.465 178.96L245.451 179.657L245.429 180.429L245.398 181.273L245.355 182.186L245.3 183.165C244.529 195.804 240.509 223.279 220.685 240.863L175.26 252L166.3 243.794L166.416 243.653L166.809 243.156L167.31 242.502L167.814 241.826L168.245 241.233L168.716 240.569L169.051 240.088L169.401 239.577L169.764 239.038L170.332 238.176L170.724 237.566L171.125 236.931C171.193 236.823 171.261 236.713 171.329 236.603L171.742 235.929C171.811 235.814 171.881 235.699 171.95 235.582L172.371 234.871L172.797 234.136C172.868 234.012 172.939 233.886 173.01 233.76L173.44 232.991L173.869 232.199C177.811 224.847 181.708 214.808 181.146 204.522C180.876 199.573 180.12 196.917 179.137 195.029L178.961 194.703C178.842 194.491 178.72 194.288 178.596 194.092L178.408 193.803C178.376 193.756 178.345 193.709 178.313 193.662L178.119 193.385L177.824 192.98L177.421 192.449L176.804 191.642L176.491 191.22L176.282 190.927C176.247 190.878 176.213 190.828 176.178 190.777L175.969 190.467C175.934 190.415 175.899 190.361 175.864 190.307L175.655 189.976C174.579 188.224 173.534 185.805 172.715 181.566C171.966 177.693 172.144 173.193 172.783 168.733L172.542 168.983L172.008 169.525L171.629 169.901L170.924 170.591L170.365 171.13L169.734 171.728L169.034 172.384L168.265 173.094L167.427 173.855C156.536 183.68 129.883 204.894 95.3101 212.725L93.8885 213.038C88.2642 214.365 82.2871 215.373 76.333 216.107L75.1021 216.255L73.9096 216.391L73.3284 216.454L71.6488 216.626L70.5851 216.727L69.4594 216.824L68.4298 216.904L68.3784 216.907C66.9903 217 65.79 215.952 65.6976 214.566C65.68 214.302 65.7039 214.045 65.7638 213.801C65.0947 213.864 64.4237 213.924 63.7514 213.981C62.3653 214.099 61.1455 213.074 61.027 211.691C60.9517 210.812 61.3391 210 61.9872 209.494C61.5668 209.535 61.1512 209.572 60.7395 209.608C59.3537 209.73 58.1315 208.707 58.0098 207.324C57.8881 205.941 58.9129 204.722 60.2988 204.6C64.8949 204.198 70.0018 203.564 75.1383 202.673C74.3019 201.957 73.6302 201.039 73.1501 199.912C71.9993 197.209 72.5795 194.599 74.139 192.355C74.7 191.547 75.2667 190.953 75.7005 190.583C76.7176 189.714 78.2285 189.795 79.147 190.743C79.1019 189.517 79.9589 188.426 81.1767 188.187L81.3736 188.157L81.5229 188.14L81.7083 188.123C83.0946 188.014 84.65 188.139 86.1975 188.702C88.5086 189.544 90.2734 191.232 91.0691 193.803C91.4503 195.034 91.5466 196.205 91.4046 197.3L92.2031 197.058C92.3385 197.017 92.475 196.974 92.6126 196.932L93.4516 196.667C93.5936 196.622 93.7366 196.576 93.8808 196.529L94.7582 196.241C94.9065 196.192 95.0558 196.142 95.2062 196.091L96.1203 195.778C96.2746 195.725 96.4299 195.67 96.5861 195.616L97.5351 195.278L98.5062 194.922L99.4988 194.549L100.512 194.158C114.155 188.82 133.076 178.561 148.632 159.5L151.097 156.471L154.991 151.661L158.411 147.43L160.18 145.252L161.427 143.726L162.613 142.288L163.372 141.375L164.107 140.499L164.821 139.658C164.939 139.52 165.055 139.384 165.171 139.249L165.855 138.458L166.522 137.698C166.632 137.574 166.741 137.451 166.85 137.329L167.493 136.615C167.706 136.382 167.916 136.153 168.124 135.929L168.742 135.271L169.35 134.64C173.572 130.308 177.157 127.829 182.61 125.366L183.402 125.014C183.536 124.955 183.672 124.897 183.808 124.838L184.641 124.484L185.504 124.127L186.397 123.767C186.549 123.706 186.702 123.645 186.856 123.584C184.571 119.862 182.059 117.767 178.861 115.836L178.43 115.579L178.06 115.367L176.443 114.471L175.866 114.145L175.425 113.887L174.978 113.616L174.678 113.428L174.377 113.232L174.075 113.03L173.772 112.819L173.469 112.6C173.419 112.563 173.368 112.526 173.318 112.488L173.016 112.256C172.414 111.783 171.819 111.254 171.248 110.651L170.964 110.344C168.759 107.889 166.963 104.273 166.572 98.5053C166.495 97.3673 166.436 96.2688 166.394 95.2122L166.356 94.1697C166.351 93.9983 166.346 93.8281 166.341 93.6591L166.319 92.6595C166.313 92.3312 166.308 92.0078 166.305 91.6893L166.3 90.749L166.303 89.8391L166.313 88.9602C166.315 88.8163 166.318 88.6737 166.321 88.5325L166.34 87.7011L166.365 86.902C166.37 86.7716 166.375 86.6425 166.38 86.5148L166.38 86.2693L166.392 85.9669L166.421 85.5578L166.463 85.1604L166.507 84.8249L166.543 84.5845L166.586 84.3315L166.635 84.0665L166.692 83.7902L166.756 83.5032L166.828 83.2061L166.909 82.8996L167 82.5843C167.015 82.531 167.032 82.4774 167.048 82.4235L167.153 82.0962L167.269 81.7618C167.45 81.2549 167.667 80.726 167.929 80.1845L168.11 79.8217L168.304 79.456C169.479 77.3144 171.37 75.0488 174.41 73.2273L175.272 72.7155L176.078 72.2458L176.831 71.8159L177.533 71.4233L178.187 71.0658L178.794 70.7409L179.537 70.3543L180.046 70.0962L180.518 69.8627L181.358 69.46L182.967 68.717L183.386 68.5145L183.543 68.4354L183.693 68.3561C184.336 68.0117 184.842 67.6462 185.478 67ZM321.244 209.153C320.816 209.288 320.408 209.519 320.005 209.878C319.626 210.216 319.372 210.547 319.214 210.876C318.818 211.7 318.985 212.716 319.604 213.809C319.712 214 319.818 214.167 319.913 214.304L320.044 214.488L320.151 214.623L320.278 214.771L321.583 215.599C321.678 215.636 321.772 215.677 321.864 215.723C324.929 217.263 327.122 217.378 328.409 216.241C328.711 215.974 328.872 215.709 328.948 215.405C329.08 214.873 328.956 214.162 328.628 213.424C328.592 213.342 328.556 213.265 328.521 213.195L328.424 213.007L328.343 212.866L328.286 212.776C327.721 211.968 327.707 210.977 328.156 210.181C327.342 210.511 326.377 210.472 325.577 210.014L325.395 209.902L325.251 209.821L325.054 209.721C324.906 209.648 324.726 209.567 324.52 209.483C323.335 209.004 322.181 208.857 321.244 209.153ZM80.3003 192L80.3008 192.009C80.323 192.779 80.0561 193.552 79.5149 194.119L79.4031 194.23C79.3363 194.292 79.2314 194.406 79.1067 194.561L78.9488 194.766C78.8663 194.878 78.7792 195.004 78.6917 195.142C78.0124 196.211 77.8098 197.208 78.1896 198.183C78.7472 199.614 80.1181 200.244 82.7587 199.914L83.0023 199.882C83.0555 199.874 83.1084 199.868 83.1612 199.864L83.5917 199.779L84.0234 199.688L84.7385 199.528L85.1538 199.431L85.2157 199.386L85.3404 199.303C85.4867 199.213 85.827 198.933 86.1723 198.51C86.9348 197.577 87.2112 196.565 86.8295 195.216C86.5202 194.124 85.9307 193.507 85.0083 193.14C84.3093 192.862 83.5159 192.77 82.8227 192.801L82.5045 192.825C81.6594 192.955 80.8525 192.621 80.3003 192Z" fill="#FFC8E9"/>
<path fill-rule="evenodd" clip-rule="evenodd" d="M319.151 229.83L321.343 231.129L323.365 232.317L325.048 233.295L325.826 233.743L327.174 234.508L327.904 234.913C328.108 235.024 328.183 235.279 328.072 235.483C327.961 235.687 327.705 235.762 327.501 235.65L326.56 235.127L325.41 234.474L323.596 233.425L322.274 232.652L320.916 231.853L318.721 230.552C318.521 230.433 318.456 230.175 318.575 229.975C318.694 229.776 318.952 229.711 319.151 229.83ZM322.998 225.93L333.551 232.69L333.774 232.828C333.973 232.947 334.037 233.206 333.917 233.405C333.797 233.604 333.539 233.668 333.34 233.548L332.113 232.775L326.117 228.934L322.543 226.637C322.348 226.512 322.291 226.252 322.417 226.056C322.542 225.861 322.802 225.805 322.998 225.93ZM79.1062 211.255C79.1539 211.47 79.0185 211.683 78.8037 211.73L78.461 211.802L77.8871 211.911L77.1847 212.033L76.1344 212.204L74.3619 212.477L72.6034 212.735L70.9777 212.966L68.4814 213.312L67.464 213.449C67.246 213.478 67.0456 213.325 67.0166 213.107C66.9875 212.889 67.1407 212.688 67.3588 212.659L69.2079 212.408L70.8665 212.177L72.4894 211.946L74.244 211.689L75.7705 211.455L77.0403 211.249L77.887 211.101L78.4171 210.998L78.6309 210.953C78.8457 210.905 79.0585 211.04 79.1062 211.255ZM75.2007 207.278C75.2484 207.493 75.113 207.706 74.8982 207.753L74.5555 207.825L74.1373 207.905L73.2792 208.056L72.4538 208.191L71.5111 208.339L69.8166 208.594L67.8917 208.873L66.2439 209.105L63.5585 209.472C63.3405 209.501 63.1401 209.348 63.1111 209.13C63.082 208.912 63.2352 208.711 63.4533 208.682L65.3025 208.431L66.961 208.2L68.584 207.969L70.6099 207.671L72.3179 207.406L73.4974 207.21L74.2634 207.071L74.7254 206.976C74.9402 206.928 75.153 207.063 75.2007 207.278ZM186.325 97.295C186.779 97.5511 186.938 98.1262 186.682 98.5795C186.411 99.0596 185.876 99.7234 185.037 100.376C183.88 101.275 182.449 101.877 180.738 102.044C180.22 102.095 179.759 101.716 179.708 101.198C179.658 100.679 180.037 100.218 180.555 100.168C181.898 100.036 182.995 99.5747 183.88 98.8874C184.246 98.6026 184.549 98.2988 184.791 97.9981L184.93 97.8173L185.017 97.6915L185.041 97.6521C185.297 97.1987 185.872 97.0389 186.325 97.295ZM177.454 87.0368L177.539 87.0383C177.798 87.0661 177.985 87.2983 177.957 87.557L177.908 87.9283L177.888 88.0635C177.827 88.4585 177.747 88.8978 177.646 89.3706C177.355 90.7221 176.947 92.0741 176.401 93.3403C176.284 93.6129 176.161 93.8789 176.032 94.1378L175.836 94.5207C175.381 95.3736 175.619 95.6379 176.309 95.4189C176.456 95.3723 176.611 95.3094 176.771 95.2342C176.909 95.169 177.032 95.1038 177.131 95.0472L177.295 94.9482C177.514 94.8065 177.805 94.8686 177.947 95.0869C178.089 95.3052 178.027 95.597 177.808 95.7386C177.67 95.8285 177.446 95.9574 177.173 96.0865C176.978 96.1785 176.784 96.2568 176.594 96.317C175.12 96.785 174.141 95.6969 175.004 94.0776C175.193 93.7236 175.37 93.3529 175.536 92.9673C176.055 91.763 176.446 90.468 176.724 89.1724C176.798 88.8321 176.859 88.5102 176.91 88.2115L176.991 87.6838L177.02 87.4565C177.045 87.2266 177.231 87.0531 177.454 87.0368ZM174.275 89.3644C174.466 89.5409 174.478 89.839 174.301 90.0302C174.16 90.1833 173.911 90.3949 173.56 90.6031C172.692 91.1184 171.676 91.3161 170.56 91.0273L170.327 90.959L170.081 91.1262L169.928 91.2203C169.687 91.363 169.447 91.4785 169.212 91.5572C168.965 91.6395 168.698 91.5062 168.616 91.2594C168.533 91.0126 168.667 90.7457 168.913 90.6633C169.078 90.6082 169.26 90.5208 169.447 90.4097C169.578 90.3321 169.695 90.2543 169.788 90.1869L169.942 90.0691C170.072 89.9615 170.25 89.9319 170.408 89.9915C171.427 90.3755 172.318 90.2445 173.079 89.7928C173.344 89.6355 173.525 89.4816 173.609 89.391C173.785 89.1998 174.084 89.1879 174.275 89.3644ZM189.181 88.1943L189.409 88.3255L189.674 88.4732L190.083 88.6922L190.319 88.8101L190.517 88.9024L190.669 88.9652C190.69 88.973 190.708 88.9794 190.724 88.9843L190.763 88.9946C191.02 89.041 191.19 89.2861 191.143 89.5421C191.097 89.7982 190.852 89.9682 190.596 89.9218C190.413 89.8889 190.163 89.7856 189.827 89.6185L189.496 89.4483L189.22 89.2992L188.939 89.142L188.913 89.1574C187.756 89.7795 186.646 90.0013 185.632 89.9073L185.399 89.88C184.986 89.8212 184.616 89.7116 184.313 89.5738C184.194 89.5197 184.09 89.4631 184.011 89.4104L183.944 89.3625L183.869 89.2948L183.842 89.2622L183.811 89.2022L183.757 89.0831L183.803 88.8759C183.879 88.5565 183.924 88.5482 184.218 88.4941C184.334 88.4941 184.44 88.5358 184.522 88.6049L184.559 88.642L184.633 88.6825L184.702 88.7157C184.926 88.8171 185.209 88.9011 185.532 88.9471C186.476 89.0813 187.545 88.875 188.704 88.1942C188.851 88.1076 189.034 88.1077 189.181 88.1943ZM174.965 82.2738C175.008 82.9381 174.539 83.5173 173.896 83.6251L173.715 83.6448L173.569 83.6652C173.541 83.67 173.509 83.6755 173.476 83.6818L173.253 83.7294C173.212 83.7391 173.169 83.7496 173.125 83.7611C172.591 83.8989 172.058 84.119 171.567 84.4354C170.981 84.8129 170.492 85.3047 170.122 85.9325C169.761 86.5442 168.973 86.7478 168.362 86.3873C167.75 86.0268 167.546 85.2387 167.907 84.627C168.488 83.64 169.262 82.8613 170.174 82.2739C171.442 81.4571 172.696 81.1331 173.598 81.0744C174.307 81.0283 174.919 81.5653 174.965 82.2738ZM190.617 80.8539C191.502 81.2335 192.324 81.7503 193.066 82.4147C193.596 82.8881 193.641 83.7009 193.167 84.2301C192.694 84.7593 191.881 84.8045 191.352 84.3311C190.821 83.8564 190.236 83.4887 189.603 83.217C188.268 82.6442 186.824 82.5253 185.493 82.69L185.074 82.7517L184.758 82.8147L184.715 82.8254C184.03 83.0115 183.324 82.607 183.138 81.9218C182.952 81.2366 183.356 80.5302 184.041 80.344L184.127 80.3219L184.346 80.2728L184.625 80.2199C184.677 80.211 184.73 80.2021 184.787 80.1932C186.638 79.9008 188.669 80.0181 190.617 80.8539Z" fill="#002199"/>
<path fill-rule="evenodd" clip-rule="evenodd" d="M172.34 169.115L172.129 158.946C172.129 158.946 162.864 180.428 117.356 205.867C150.608 192.13 172.34 169.115 172.34 169.115Z" fill="#FF9FD1"/>
<path fill-rule="evenodd" clip-rule="evenodd" d="M261.698 153.798C249.525 139.099 244.067 134.44 231.504 127.626C226.747 134.082 214.041 150.766 196.728 150.189C174.858 149.46 175.171 129.536 175.171 129.519C169.42 133.516 164.807 139.543 154.984 151.729C168.309 161.477 169.279 171.925 169.279 171.925V172.001C171.284 170.193 172.34 169.115 172.34 169.115C171.705 173.555 171.528 178.034 172.272 181.889C174.897 195.503 179.857 190.252 180.647 204.741C181.738 224.759 165.9 243.832 165.9 243.832L174.801 252.001L219.92 240.915C247.357 218.367 245.453 176.388 245.453 176.388L241.313 173.041C244.377 159.038 258.635 154.766 258.635 154.766L261.698 153.798Z" fill="#F4F9FF"/>
<path fill-rule="evenodd" clip-rule="evenodd" d="M244.677 175.796L241.314 173.04C238.273 170.061 232.442 163.736 232.442 163.736C232.442 163.736 233.174 167.173 233.713 172.689C233.712 172.696 233.504 183.668 226.913 191.259C222.58 196.248 223.634 196.855 226.17 199.337C229.4 202.499 232.02 205.766 229.493 214.326C227.081 221.046 223.551 227.564 218.465 233.241L227.742 233.56C246.892 209.721 245.453 176.388 245.453 176.388L244.677 175.796Z" fill="#9CC5FF"/>
<path fill-rule="evenodd" clip-rule="evenodd" d="M283.84 314.221C295.09 315.587 307.368 319.236 306.992 322.986C306.472 328.166 295.929 328.962 282.819 327.947C258.573 326.07 263.277 314.758 231.18 318.824C215.106 320.861 217.161 330.821 189.286 338.706C176.207 342.405 161.464 344.602 143.422 341.579C124.006 338.325 132.495 324.609 110.833 324.226C90.854 323.871 82.3241 327.033 72.0903 328.231C54.5858 330.052 46.7506 327.206 62.5087 322.081C99.1578 310.161 119.497 314.664 133.196 314.359C159.279 313.778 151.588 308.731 181.286 308.16C231.174 307.198 262.977 310.749 283.84 314.221Z" fill="#D0E8FF"/>
<path fill-rule="evenodd" clip-rule="evenodd" d="M121.402 239.894C122.132 239.749 134.821 235.956 134.821 235.956L166.474 244.562L190.104 244.854L215.629 239.311V260.169L148.533 277.819" fill="#27B7FF"/>
<path fill-rule="evenodd" clip-rule="evenodd" d="M166.146 245.388L163.52 241.693C163.52 241.693 155.23 237.925 142.249 230.559C129.267 223.193 109.21 209.409 94.4056 218.452C79.6002 227.497 92.7281 251.855 101.48 260.607C110.231 269.359 120.004 282.924 173.536 302.178C173.536 302.178 180.189 303.115 180.092 306.907C179.995 310.699 177.328 320.07 170.23 333.587C170.23 333.587 169.452 334.802 170.473 335.386C171.494 335.969 173.378 336.061 176.964 334.267C182.361 331.569 198.77 318.514 206.574 304.074C206.574 304.074 210.731 297 204.386 293.061C198.041 289.123 166.097 281.101 166.097 281.101L154.576 268.635C154.576 268.635 115.41 241.79 133.497 244.635" fill="#27B7FF"/>
<path fill-rule="evenodd" clip-rule="evenodd" d="M154.575 268.635C141.024 263.057 127.838 244.022 138.702 248.059C138.702 248.059 141.953 249.48 143.855 250.673C147.029 252.663 154.659 259.133 172.606 256.888C190.553 254.642 208.575 242.908 213.728 243.883C218.881 244.857 210.942 260.735 209.967 260.875C208.992 261.014 159.548 270.903 159.548 270.903" fill="#0B7EFF"/>
<path fill-rule="evenodd" clip-rule="evenodd" d="M207.054 295.736C206.508 294.773 205.662 293.854 204.386 293.061C198.041 289.124 166.097 281.101 166.097 281.101L154.624 268.687C121.402 275.62 92.3665 247.537 92.3169 247.503C95.0327 252.864 98.5078 257.635 101.48 260.607C110.232 269.359 120.004 282.923 173.536 302.177C173.536 302.177 177.654 303.459 177.522 307.818C177.465 309.713 177.426 312.777 176.502 317.055C184.217 311.681 197.218 302.606 207.054 295.736Z" fill="#0B7EFF"/>
<path fill-rule="evenodd" clip-rule="evenodd" d="M163.52 241.693C163.52 241.693 173.439 248.014 188.706 241.207C203.973 234.4 233.771 223.219 247.124 231.653C259.595 239.529 256.798 254.335 247.926 262.503C240.05 269.755 202.271 299.844 94.2844 298.677C94.2844 298.677 88.2065 298.531 84.7056 299.358C81.2046 300.184 66.8742 303.564 54.9135 309.544C54.9135 309.544 51.4125 311.002 50.236 310.417C48.4139 309.508 49.1155 307.818 51.3031 305.581C53.4908 303.345 67.8586 289.415 82.1531 282.705C82.1531 282.705 84.8149 280.809 89.7378 280.881C94.6607 280.955 129.396 278.972 172.078 262.503C217.441 245 193.227 246.021 193.227 246.021L166.097 246.895L163.52 241.693Z" fill="#27B7FF"/>
<path fill-rule="evenodd" clip-rule="evenodd" d="M74.6631 160.757C77.04 136.08 123.731 120.089 182.7 122.894C183.197 122.918 183.58 123.339 183.556 123.836C183.533 124.332 183.111 124.716 182.615 124.692C124.523 121.929 78.6997 137.623 76.4548 160.929C74.0087 186.319 123.738 212.287 187.672 218.445C251.605 224.602 305.376 208.605 307.822 183.215C309.628 164.457 282.631 144.724 240.255 133.43C239.775 133.302 239.489 132.809 239.617 132.328C239.745 131.848 240.239 131.562 240.719 131.69C283.867 143.191 311.537 163.415 309.613 183.388C307.03 210.209 252.336 226.481 187.499 220.237C122.662 213.991 72.0791 187.578 74.6631 160.757Z" fill="#FFA900"/>
<path fill-rule="evenodd" clip-rule="evenodd" d="M109.481 82.503C117.504 73.8274 133.673 73.9346 154.568 82.1149C155.031 82.2961 155.259 82.8182 155.078 83.281C154.897 83.7439 154.375 83.9722 153.912 83.791L152.701 83.3241C133.018 75.8513 118.031 75.9091 110.802 83.7252C94.9244 100.892 120.072 150.571 167.384 194.33C214.696 238.09 266.183 259.291 282.061 242.124C286.497 237.328 287.824 229.851 286.025 220.221C285.933 219.732 286.255 219.262 286.744 219.171C287.232 219.08 287.703 219.402 287.794 219.89C289.689 230.029 288.261 238.071 283.382 243.346C266.499 261.599 214.163 240.049 166.162 195.651C118.16 151.255 92.598 100.756 109.481 82.503Z" fill="#FFA900"/>
<path fill-rule="evenodd" clip-rule="evenodd" d="M178.924 118.129C179.363 117.896 179.908 118.064 180.141 118.503C180.373 118.942 180.206 119.487 179.767 119.72C162.695 128.76 128.358 163.566 113.72 186.921C113.456 187.342 112.901 187.47 112.48 187.206C112.059 186.942 111.931 186.386 112.195 185.965C126.989 162.36 161.546 127.331 178.924 118.129Z" fill="#FFA900"/>
<path fill-rule="evenodd" clip-rule="evenodd" d="M218.418 94.0078C258.587 68.256 290.998 58.2991 300.551 69.9235C313.511 85.694 278.933 134.808 223.654 180.238C168.374 225.667 113.492 250.074 100.531 234.303C96.674 229.61 96.9239 222.006 100.93 212.14C101.117 211.679 101.642 211.457 102.102 211.644C102.563 211.831 102.784 212.356 102.597 212.817C98.8137 222.137 98.5849 229.1 101.922 233.161C113.86 247.687 168.09 223.571 222.511 178.847C276.931 134.124 311.098 85.5932 299.16 71.0664C290.508 60.5386 258.734 70.3001 219.389 95.5231C218.971 95.7914 218.414 95.6696 218.146 95.2512C217.878 94.8327 217.999 94.2761 218.418 94.0078Z" fill="#FFA900"/>
<path fill-rule="evenodd" clip-rule="evenodd" d="M92.8012 166.075C91.4008 166.075 90.0926 165.452 89.2118 164.365L63.6956 132.898C62.9184 131.94 62.5615 130.737 62.6896 129.51C62.8177 128.283 63.4164 127.179 64.3742 126.402L76.8941 116.251C77.7137 115.585 78.7457 115.22 79.7999 115.22C81.2003 115.22 82.5085 115.842 83.3893 116.929L108.905 148.396C110.509 150.374 110.205 153.288 108.227 154.892L95.7077 165.044C94.8874 165.709 93.8554 166.075 92.8012 166.075Z" fill="#005CFF"/>
<path fill-rule="evenodd" clip-rule="evenodd" d="M79.8004 114.391C78.5562 114.391 77.3393 114.823 76.3722 115.608L63.853 125.759C61.5207 127.65 61.1616 131.087 63.0528 133.419L88.5689 164.886C89.6073 166.168 91.1502 166.903 92.801 166.903C94.0445 166.903 95.2614 166.471 96.2292 165.686L108.748 155.535C111.081 153.644 111.44 150.207 109.548 147.875L84.0325 116.408C82.9933 115.126 81.4505 114.391 79.8004 114.391Z" fill="#005CFF"/>
<path fill-rule="evenodd" clip-rule="evenodd" d="M79.8004 116.047C80.9036 116.047 81.9974 116.526 82.7465 117.45L108.263 148.917C109.581 150.544 109.332 152.931 107.706 154.25L95.1865 164.401C94.4842 164.97 93.6394 165.248 92.801 165.248C91.6978 165.248 90.6033 164.768 89.8542 163.844L64.3387 132.377C63.0197 130.751 63.2694 128.364 64.8957 127.045L77.4149 116.894C78.1172 116.324 78.9613 116.047 79.8004 116.047Z" fill="#005CFF"/>
<path fill-rule="evenodd" clip-rule="evenodd" d="M62.3992 127.575L64.0651 124.473L86.3005 123.52L111.507 150.356L110.362 153.353L82.8039 151.934L62.3992 127.575Z" fill="#005CFF"/>
<path fill-rule="evenodd" clip-rule="evenodd" d="M94.27 162.768C92.9028 162.768 91.6247 162.159 90.7641 161.099L65.2479 129.631C63.682 127.7 63.9792 124.854 65.9107 123.287L78.4298 113.136C79.2308 112.486 80.239 112.128 81.2687 112.128C82.636 112.128 83.914 112.737 84.7747 113.798L110.29 145.265C111.857 147.197 111.56 150.042 109.627 151.61L97.1082 161.761C96.308 162.411 95.2998 162.768 94.27 162.768Z" fill="#002199"/>
<path fill-rule="evenodd" clip-rule="evenodd" d="M81.2688 111.409C80.075 111.409 78.9056 111.823 77.9773 112.577L65.4574 122.728C63.218 124.545 62.8733 127.845 64.6889 130.085L90.205 161.552C91.2031 162.782 92.6841 163.488 94.2694 163.488C95.464 163.488 96.6326 163.073 97.5616 162.32L110.081 152.168C112.321 150.352 112.666 147.052 110.849 144.812L85.3332 113.344C84.3358 112.114 82.8541 111.409 81.2688 111.409Z" fill="#005CFF"/>
<path fill-rule="evenodd" clip-rule="evenodd" d="M81.2687 112.848C82.3719 112.848 83.4665 113.327 84.2156 114.251L109.731 145.719C111.05 147.345 110.8 149.732 109.174 151.05L96.6549 161.202C95.9525 161.772 95.1084 162.049 94.2693 162.049C93.1662 162.049 92.0723 161.57 91.3232 160.645L65.8071 129.178C64.4887 127.552 64.7377 125.165 66.3641 123.846L78.8832 113.694C79.5856 113.125 80.4297 112.848 81.2687 112.848Z" fill="#002FC4"/>
<path fill-rule="evenodd" clip-rule="evenodd" d="M94.2556 131.337C97.4478 135.068 97.0096 140.68 93.2784 143.871C89.5479 147.063 83.9363 146.627 80.7448 142.895C77.5526 139.164 77.9894 133.552 81.7199 130.36C85.4511 127.169 91.0634 127.606 94.2556 131.337Z" fill="#FD5C00"/>
<path fill-rule="evenodd" clip-rule="evenodd" d="M89.1099 132.542C89.4053 131.812 90.2373 131.459 90.9681 131.754C91.6561 132.032 92.0093 132.785 91.8022 133.482L91.7567 133.612L88.9063 140.665C88.6356 141.335 87.9124 141.69 87.227 141.513L87.0906 141.47L84.2899 140.441C83.5499 140.169 83.1705 139.349 83.4423 138.609C83.6982 137.913 84.4399 137.535 85.1431 137.72L85.2744 137.761L86.777 138.313L89.1099 132.542Z" fill="white"/>
<path fill-rule="evenodd" clip-rule="evenodd" d="M169.279 171.925V172.001C171.284 170.193 172.34 169.115 172.34 169.115L174.557 157.263C174.557 157.263 172.15 159.925 167.438 166.259C168.574 169.041 169.279 171.925 169.279 171.925Z" fill="#9CC5FF"/>
<path fill-rule="evenodd" clip-rule="evenodd" d="M174.695 156.57C175.078 156.646 175.327 157.018 175.251 157.401L174.895 159.226C174.717 160.152 174.54 161.094 174.367 162.029L174.012 163.987L173.737 165.563C173.568 166.555 173.422 167.452 173.306 168.234C173.248 168.621 172.888 168.887 172.502 168.829C172.116 168.772 171.85 168.412 171.907 168.026L172.035 167.196C172.171 166.33 172.335 165.357 172.522 164.295L172.721 163.173C172.888 162.247 173.062 161.302 173.24 160.362L173.642 158.259L173.864 157.125C173.934 156.774 174.252 156.536 174.6 156.557L174.695 156.57Z" fill="#06A0FF"/>
<path fill-rule="evenodd" clip-rule="evenodd" d="M231.101 161.174C231.422 160.952 231.863 161.032 232.085 161.353C232.711 162.258 233.515 163.295 234.467 164.439C234.869 164.922 235.295 165.421 235.742 165.932C236.659 166.984 237.63 168.052 238.612 169.1L239.604 170.149L240.988 171.574C241.263 171.851 241.262 172.298 240.985 172.574C240.709 172.849 240.261 172.848 239.986 172.571L239.527 172.105C239.237 171.807 238.92 171.48 238.582 171.126L238.325 170.856C237.082 169.548 235.838 168.193 234.676 166.862C234.223 166.342 233.79 165.835 233.381 165.343C232.404 164.17 231.576 163.101 230.923 162.158C230.7 161.837 230.78 161.397 231.101 161.174Z" fill="#06A0FF"/>
<path fill-rule="evenodd" clip-rule="evenodd" d="M101.293 280.093C95.2273 280.746 91.1881 280.916 89.738 280.882C85.5679 280.785 81.7755 282.535 81.7755 282.535C67.481 289.244 53.491 303.345 51.3033 305.581C49.115 307.818 48.4141 309.509 50.2362 310.417C51.4127 311.002 54.9129 309.544 54.9129 309.544C66.8737 303.563 81.2048 300.185 84.7058 299.358C85.098 299.265 85.5261 299.186 85.9716 299.117L85.9694 299.116C85.9694 299.116 82.5174 297.145 85.5808 292.478C88.2362 288.431 93.8564 283.29 101.293 280.093Z" fill="#FD5C00"/>
<path fill-rule="evenodd" clip-rule="evenodd" d="M72.5552 297.564C73.1578 294.92 74.3644 293.401 76.3672 293.883C77.3009 294.107 77.6789 294.822 77.519 295.779C77.4029 296.474 77.0144 297.313 76.4104 298.277C75.6313 299.52 74.2075 301.298 73.8685 301.59L73.8306 301.62L73.3122 300.833C73.4176 300.763 74.8672 298.965 75.612 297.776C76.1554 296.909 76.4987 296.168 76.5896 295.624C76.6738 295.12 76.5561 294.897 76.1469 294.799C74.8422 294.485 73.9743 295.577 73.4739 297.773C73.3102 298.491 73.2036 299.265 73.1433 300.04C73.1293 300.221 73.1184 300.394 73.1105 300.555L73.0922 301.108L72.1518 301.064L72.1531 300.94L72.1469 300.86C72.0913 300.384 71.7673 299.284 71.3743 298.473L71.289 298.304C70.663 297.113 70.0746 296.783 69.4123 297.339C69.0366 297.655 69.0084 298.019 69.2964 298.55C69.5469 299.011 70.0172 299.529 70.6411 300.064C71.0002 300.371 71.3868 300.664 71.7735 300.932L72.1275 301.17L72.283 301.269L71.7914 302.073L71.6521 301.985C71.5427 301.915 71.4016 301.821 71.2368 301.707C70.8254 301.422 70.4139 301.11 70.0282 300.779C69.3246 300.177 68.7844 299.582 68.4682 298.999C67.984 298.107 68.0501 297.253 68.8061 296.618C70.0717 295.555 71.2588 296.222 72.1231 297.866C72.1896 297.992 72.2545 298.126 72.3173 298.265L72.3881 298.427L72.4575 298.03L72.5552 297.564Z" fill="#FF9700"/>
<path fill-rule="evenodd" clip-rule="evenodd" d="M204.386 293.061C202.927 292.155 200.11 291.033 196.642 289.843C180.428 294.408 177.523 307.818 177.523 307.818C177.426 311.61 177.328 320.07 170.229 333.587C170.229 333.587 169.452 334.802 170.473 335.386C171.494 335.969 173.378 336.061 176.964 334.267C182.361 331.569 198.77 318.514 206.574 304.074C206.574 304.074 210.731 297 204.386 293.061Z" fill="#FD5C00"/>
<path fill-rule="evenodd" clip-rule="evenodd" d="M206.574 304.074C206.574 304.074 207.413 302.64 207.761 300.706C207.77 300.662 208.384 297.173 206.315 295.847C203.985 294.355 199.815 295.859 196.704 299.357C193.592 302.857 185.79 314.492 178.532 323.693C173.353 330.256 171.268 332.007 170.36 333.338L170.345 333.359C170.304 333.437 170.27 333.509 170.229 333.587C170.229 333.587 169.452 334.802 170.473 335.386C171.494 335.969 173.378 336.061 176.964 334.267C182.361 331.569 198.77 318.514 206.574 304.074Z" fill="#AF0800"/>
<path fill-rule="evenodd" clip-rule="evenodd" d="M180.704 305.363C181.323 304.079 182.147 303.413 183.175 303.76C184.402 304.176 184.389 305.497 183.553 307.031C183.412 307.289 183.251 307.547 183.075 307.8L183.043 307.842L183.119 307.832C183.961 307.727 184.649 308.034 185.042 308.841L185.113 308.999C186.107 311.428 182.519 313.272 179.925 311.527L179.779 311.425L180.338 310.666C182.268 312.088 184.835 310.807 184.241 309.356C183.991 308.746 183.533 308.621 182.761 308.879C182.474 308.975 182.166 309.122 181.846 309.308L181.622 309.443L181.429 309.611C181.205 309.798 180.978 309.965 180.754 310.107L180.531 310.24L178.433 311.425L178.433 310.41L180.309 309.215C180.472 309.088 180.645 308.962 180.825 308.839L181.049 308.692L181.235 308.518C181.748 308.021 182.231 307.417 182.595 306.808L182.725 306.58C183.321 305.489 183.327 304.806 182.873 304.653C182.435 304.505 181.991 304.864 181.553 305.772C181.216 306.469 180.938 307.405 180.756 308.329L180.692 308.674L179.764 308.515C179.955 307.404 180.282 306.239 180.704 305.363Z" fill="#FF9700"/>
<path fill-rule="evenodd" clip-rule="evenodd" d="M71.4211 122.799C70.482 122.799 69.5523 122.392 68.9169 121.606L77.3479 114.771C78.4691 116.154 78.2575 118.182 76.8744 119.303L73.4476 122.079C72.851 122.563 72.1336 122.799 71.4211 122.799Z" fill="#005CFF"/>
<path fill-rule="evenodd" clip-rule="evenodd" d="M75.022 119.122C75.022 119.547 74.6774 119.891 74.2528 119.891C73.8275 119.891 73.4828 119.547 73.4828 119.122C73.4828 118.697 73.8275 118.353 74.2528 118.353C74.6774 118.353 75.022 118.697 75.022 119.122Z" fill="#0A1B64"/>
<path fill-rule="evenodd" clip-rule="evenodd" d="M173.336 112.634C175.624 114.825 177.211 115.173 179.068 116.275C181.268 117.583 182.755 118.733 184.263 120.212C184.588 120.53 186.481 121.782 188.822 121.782C194.3 121.782 200.242 113.541 198.293 110.988C196.236 108.294 192.898 112.861 184.254 114.47C176.268 115.956 172.058 111.435 172.058 111.435L173.336 112.634Z" fill="#FF9FD1"/>
<path fill-rule="evenodd" clip-rule="evenodd" d="M186.856 123.584C183.662 124.849 179.401 126.692 176.913 128.447C184.399 127.901 190.415 132.99 190.05 132.158C188.314 128.201 186.856 123.584 186.856 123.584Z" fill="#FF9FD1"/>
<path fill-rule="evenodd" clip-rule="evenodd" d="M222.303 125.417C222.581 124.992 223.153 124.872 223.581 125.149C224.008 125.426 224.129 125.994 223.85 126.419L223.674 126.676C223.623 126.749 223.565 126.831 223.498 126.923L223.392 127.068C223.024 127.568 222.588 128.123 222.086 128.72C220.653 130.421 218.968 132.12 217.039 133.707C211.506 138.26 205.108 141 197.934 141C191.931 141 187.268 138.56 183.827 134.516C182.629 133.108 181.667 131.602 180.917 130.095L180.687 129.619C180.366 128.935 180.156 128.392 180.044 128.043C179.889 127.56 180.157 127.044 180.643 126.89C181.129 126.736 181.648 127.002 181.803 127.485L181.884 127.712C181.91 127.782 181.941 127.864 181.978 127.957C182.136 128.355 182.333 128.8 182.573 129.282C183.26 130.662 184.142 132.044 185.237 133.331C188.346 136.985 192.511 139.165 197.934 139.165C204.632 139.165 210.635 136.593 215.862 132.293C217.699 130.782 219.306 129.161 220.67 127.542C221.05 127.09 221.39 126.664 221.686 126.272L221.901 125.985C222.105 125.708 222.239 125.514 222.303 125.417Z" fill="#0A1B64"/>
<path fill-rule="evenodd" clip-rule="evenodd" d="M200.027 143.512C200.027 145.302 199.072 146.754 197.895 146.754C196.717 146.754 195.763 145.302 195.763 143.512C195.763 141.722 196.717 140.27 197.895 140.27C199.072 140.27 200.027 141.722 200.027 143.512Z" fill="#FD5C00"/>
<path fill-rule="evenodd" clip-rule="evenodd" d="M330.017 80.1128C330.017 80.1128 330.017 84.5435 325.586 84.5435C330.017 84.5435 330.017 88.9749 330.017 88.9749C330.017 88.9749 330.017 84.5435 334.448 84.5435C330.017 84.5435 330.017 80.1128 330.017 80.1128Z" fill="#A6A6FF"/>
<path fill-rule="evenodd" clip-rule="evenodd" d="M328.924 84.5434C329.37 84.8766 329.73 85.2709 330.017 85.6941C330.304 85.2709 330.664 84.8766 331.109 84.5434C330.664 84.2109 330.304 83.8159 330.017 83.3935C329.73 83.8159 329.37 84.2109 328.924 84.5434ZM330.017 89.9801C329.462 89.9801 329.012 89.5303 329.012 88.9748C329.008 88.6287 328.881 85.5487 325.586 85.5487C325.03 85.5487 324.581 85.0989 324.581 84.5434C324.581 83.9886 325.03 83.5388 325.586 83.5388C328.878 83.5388 329.008 80.4646 329.012 80.1084C329.014 79.555 329.463 79.1074 330.017 79.1074C330.566 79.1074 331.013 79.5478 331.022 80.0947V80.0962V80.0976V80.0983V80.0991V80.0998V80.1012V80.1027V80.1041V80.1062V80.1084C331.026 80.4646 331.156 83.5388 334.448 83.5388C335.003 83.5388 335.453 83.9886 335.453 84.5434C335.453 85.0989 335.003 85.5487 334.448 85.5487C331.118 85.5487 331.022 88.6243 331.022 88.9748C331.022 89.5303 330.572 89.9801 330.017 89.9801Z" fill="#A6A6FF"/>
<path fill-rule="evenodd" clip-rule="evenodd" d="M344.019 156.25C344.019 156.25 344.019 158.131 342.139 158.131C344.019 158.131 344.019 160.012 344.019 160.012C344.019 160.012 344.019 158.131 345.9 158.131C344.019 158.131 344.019 156.25 344.019 156.25Z" fill="#A6A6FF"/>
<path fill-rule="evenodd" clip-rule="evenodd" d="M343.556 158.131C343.744 158.272 343.897 158.44 344.019 158.619C344.141 158.44 344.294 158.272 344.483 158.131C344.294 157.989 344.141 157.822 344.019 157.643C343.897 157.822 343.744 157.989 343.556 158.131ZM344.019 160.438C343.784 160.438 343.592 160.248 343.592 160.012C343.591 159.865 343.537 158.558 342.138 158.558C341.903 158.558 341.712 158.366 341.712 158.131C341.712 157.895 341.903 157.704 342.138 157.704C343.536 157.704 343.591 156.4 343.592 156.249C343.593 156.013 343.784 155.823 344.019 155.823C344.252 155.823 344.442 156.01 344.446 156.243V156.244V156.244V156.245V156.246V156.246V156.247V156.248V156.249C344.447 156.4 344.503 157.704 345.9 157.704C346.136 157.704 346.326 157.895 346.326 158.131C346.326 158.366 346.136 158.558 345.9 158.558C344.487 158.558 344.446 159.863 344.446 160.012C344.446 160.248 344.254 160.438 344.019 160.438Z" fill="#A6A6FF"/>
<path fill-rule="evenodd" clip-rule="evenodd" d="M57.9265 59.8348C57.9265 59.8348 57.9265 64.2662 53.4951 64.2662C57.9265 64.2662 57.9265 68.6969 57.9265 68.6969C57.9265 68.6969 57.9265 64.2662 62.3572 64.2662C57.9265 64.2662 57.9265 59.8348 57.9265 59.8348Z" fill="#A6A6FF"/>
<path fill-rule="evenodd" clip-rule="evenodd" d="M56.8338 64.2663C57.2793 64.5988 57.6391 64.9931 57.9269 65.4162C58.2133 64.9931 58.5739 64.5988 59.0186 64.2663C58.5739 63.9331 58.2133 63.5381 57.9269 63.1156C57.6391 63.5381 57.2793 63.9331 56.8338 64.2663ZM57.9269 69.7023C57.3714 69.7023 56.9216 69.2525 56.9216 68.697C56.9173 68.3508 56.7907 65.2709 53.4955 65.2709C52.94 65.2709 52.4902 64.8211 52.4902 64.2663C52.4902 63.7108 52.94 63.261 53.4955 63.261C56.7878 63.261 56.9173 60.1868 56.9216 59.8306C56.9231 59.2772 57.3721 58.8303 57.9269 58.8303C58.4753 58.8303 58.9222 59.27 58.9315 59.8169V59.8176V59.8184V59.8198V59.8205V59.822V59.8234V59.8248V59.827V59.8284V59.8291V59.8306C58.9351 60.1868 59.0654 63.261 62.3576 63.261C62.9124 63.261 63.3629 63.7108 63.3629 64.2663C63.3629 64.8211 62.9124 65.2709 62.3576 65.2709C59.0279 65.2709 58.9315 68.3465 58.9315 68.697C58.9315 69.2525 58.4818 69.7023 57.9269 69.7023Z" fill="#A6A6FF"/>
<path fill-rule="evenodd" clip-rule="evenodd" d="M134.747 24.5975C134.747 24.5975 134.747 27.2637 132.08 27.2637C134.747 27.2637 134.747 29.9306 134.747 29.9306C134.747 29.9306 134.747 27.2637 137.414 27.2637C134.747 27.2637 134.747 24.5975 134.747 24.5975Z" fill="#A6A6FF"/>
<path fill-rule="evenodd" clip-rule="evenodd" d="M134.089 27.2638C134.357 27.4639 134.574 27.7013 134.747 27.9561C134.92 27.7013 135.137 27.4639 135.404 27.2638C135.137 27.0638 134.92 26.8263 134.747 26.5715C134.574 26.8263 134.357 27.0638 134.089 27.2638ZM134.747 30.5352C134.413 30.5352 134.142 30.2646 134.142 29.9307C134.14 29.7227 134.064 27.869 132.08 27.869C131.746 27.869 131.476 27.5977 131.476 27.2638C131.476 26.9299 131.746 26.6593 132.08 26.6593C134.062 26.6593 134.14 24.8092 134.142 24.5955C134.143 24.2623 134.413 23.9924 134.747 23.9924C135.078 23.9924 135.346 24.2573 135.352 24.5868V24.5876V24.5883V24.589V24.5897V24.5904V24.5919V24.5926V24.5933V24.594V24.5955C135.354 24.8092 135.432 26.6593 137.413 26.6593C137.747 26.6593 138.019 26.9299 138.019 27.2638C138.019 27.5977 137.747 27.869 137.413 27.869C135.41 27.869 135.352 29.7199 135.352 29.9307C135.352 30.2646 135.081 30.5352 134.747 30.5352Z" fill="#A6A6FF"/>
<path fill-rule="evenodd" clip-rule="evenodd" d="M48.6355 175.369C48.6355 175.369 48.6355 177.55 46.4543 177.55C48.6355 177.55 48.6355 179.731 48.6355 179.731C48.6355 179.731 48.6355 177.55 50.8159 177.55C48.6355 177.55 48.6355 175.369 48.6355 175.369Z" fill="#A6A6FF"/>
<path fill-rule="evenodd" clip-rule="evenodd" d="M48.0976 177.55C48.3163 177.714 48.4941 177.908 48.6358 178.116C48.7769 177.908 48.9539 177.714 49.1727 177.55C48.9539 177.386 48.7769 177.192 48.6358 176.984C48.4941 177.192 48.3163 177.386 48.0976 177.55ZM48.6358 180.226C48.3624 180.226 48.1408 180.004 48.1408 179.731C48.1386 179.561 48.0767 178.045 46.4547 178.045C46.1812 178.045 45.9596 177.823 45.9596 177.55C45.9596 177.277 46.1812 177.055 46.4547 177.055C48.0753 177.055 48.1386 175.543 48.1408 175.367C48.1415 175.095 48.3631 174.875 48.6358 174.875C48.9057 174.875 49.1252 175.091 49.1302 175.36V175.361V175.362V175.363V175.363V175.364V175.365V175.366V175.367C49.1317 175.543 49.1957 177.055 50.8163 177.055C51.0897 177.055 51.3107 177.277 51.3107 177.55C51.3107 177.823 51.0897 178.045 50.8163 178.045C49.177 178.045 49.1302 179.559 49.1302 179.731C49.1302 180.004 48.9086 180.226 48.6358 180.226Z" fill="#A6A6FF"/>
<path fill-rule="evenodd" clip-rule="evenodd" d="M312.887 14.5665C312.887 14.5665 312.887 16.7477 310.706 16.7477C312.887 16.7477 312.887 18.9288 312.887 18.9288C312.887 18.9288 312.887 16.7477 315.068 16.7477C312.887 16.7477 312.887 14.5665 312.887 14.5665Z" fill="#A6A6FF"/>
<path fill-rule="evenodd" clip-rule="evenodd" d="M312.349 16.7477C312.569 16.911 312.746 17.1053 312.887 17.314C313.028 17.1053 313.206 16.911 313.425 16.7477C313.206 16.5836 313.028 16.3893 312.887 16.1813C312.746 16.3893 312.569 16.5836 312.349 16.7477ZM312.887 19.4232C312.614 19.4232 312.392 19.2016 312.392 18.9288C312.391 18.7583 312.328 17.2421 310.706 17.2421C310.433 17.2421 310.212 17.0211 310.212 16.7477C310.212 16.4742 310.433 16.2526 310.706 16.2526C312.327 16.2526 312.391 14.7399 312.392 14.5651C312.394 14.2923 312.615 14.0721 312.887 14.0721C313.157 14.0721 313.378 14.2887 313.382 14.5579V14.5586V14.5593V14.56V14.5608V14.5615V14.5622V14.5629V14.5636V14.5651C313.383 14.7399 313.447 16.2526 315.068 16.2526C315.341 16.2526 315.563 16.4742 315.563 16.7477C315.563 17.0211 315.341 17.2421 315.068 17.2421C313.429 17.2421 313.382 18.7561 313.382 18.9288C313.382 19.2016 313.16 19.4232 312.887 19.4232Z" fill="#A6A6FF"/>
<path fill-rule="evenodd" clip-rule="evenodd" d="M229.366 50.1843C229.366 50.1843 229.366 51.2882 228.262 51.2882C229.366 51.2882 229.366 52.3921 229.366 52.3921C229.366 52.3921 229.366 51.2882 230.47 51.2882C229.366 51.2882 229.366 50.1843 229.366 50.1843Z" fill="#A6A6FF"/>
<path fill-rule="evenodd" clip-rule="evenodd" d="M229.094 51.2883C229.205 51.371 229.295 51.4696 229.366 51.5754C229.437 51.4696 229.527 51.371 229.638 51.2883C229.527 51.2055 229.437 51.1069 229.366 51.0019C229.295 51.1069 229.205 51.2055 229.094 51.2883ZM229.366 52.6433C229.228 52.6433 229.115 52.5303 229.115 52.3922C229.115 52.3065 229.083 51.5387 228.262 51.5387C228.124 51.5387 228.011 51.4272 228.011 51.2883C228.011 51.1501 228.124 51.0379 228.262 51.0379C229.082 51.0379 229.115 50.2722 229.115 50.1837C229.116 50.0455 229.228 49.934 229.366 49.934C229.503 49.934 229.614 50.0441 229.616 50.1801V50.1808V50.1815V50.1822V50.1829V50.1837C229.617 50.2722 229.649 51.0379 230.47 51.0379C230.608 51.0379 230.72 51.1501 230.72 51.2883C230.72 51.4272 230.608 51.5387 230.47 51.5387C229.64 51.5387 229.616 52.3051 229.616 52.3922C229.616 52.5303 229.504 52.6433 229.366 52.6433Z" fill="#A6A6FF"/>
<path fill-rule="evenodd" clip-rule="evenodd" d="M42.7611 45.05C42.7611 45.05 42.7611 46.1539 41.6572 46.1539C42.7611 46.1539 42.7611 47.2578 42.7611 47.2578C42.7611 47.2578 42.7611 46.1539 43.865 46.1539C42.7611 46.1539 42.7611 45.05 42.7611 45.05Z" fill="#A6A6FF"/>
<path fill-rule="evenodd" clip-rule="evenodd" d="M42.489 46.154C42.5999 46.2368 42.6898 46.3353 42.7611 46.4404C42.8323 46.3353 42.9223 46.2368 43.0331 46.154C42.9223 46.0705 42.8323 45.9727 42.7611 45.8676C42.6898 45.9727 42.5999 46.0705 42.489 46.154ZM42.7611 47.5083C42.6229 47.5083 42.5106 47.3961 42.5106 47.2579C42.5099 47.1715 42.4782 46.4044 41.6572 46.4044C41.519 46.4044 41.4067 46.2922 41.4067 46.154C41.4067 46.0158 41.519 45.9036 41.6572 45.9036C42.4775 45.9036 42.5099 45.1379 42.5106 45.0494C42.5113 44.9112 42.6229 44.7997 42.7611 44.7997C42.8978 44.7997 43.0093 44.9091 43.0115 45.0458V45.0465V45.0472V45.048V45.0487V45.0494C43.0122 45.1379 43.0446 45.9036 43.8649 45.9036C44.0031 45.9036 44.1154 46.0158 44.1154 46.154C44.1154 46.2922 44.0031 46.4044 43.8649 46.4044C43.0352 46.4044 43.0115 47.1708 43.0115 47.2579C43.0115 47.3961 42.8992 47.5083 42.7611 47.5083Z" fill="#A6A6FF"/>
<path fill-rule="evenodd" clip-rule="evenodd" d="M163.532 200.707L169.9 236.606L188.487 233.522L182.543 197.355L163.532 200.707Z" fill="#00BBC4"/>
<path fill-rule="evenodd" clip-rule="evenodd" d="M166.562 202.812L180.389 200.375L185.486 231.385L172.026 233.618L166.562 202.812Z" fill="#6CD8E3"/>
<path fill-rule="evenodd" clip-rule="evenodd" d="M173.697 203.58C173.153 203.676 172.79 204.194 172.886 204.738L173.664 209.15C173.76 209.694 174.278 210.057 174.822 209.961C175.366 209.865 175.729 209.346 175.634 208.802L174.856 204.391C174.76 203.847 174.241 203.484 173.697 203.58ZM175.62 211.776C178.155 211.554 180.397 213.424 180.618 215.944C180.838 218.464 178.955 220.694 176.42 220.916C173.885 221.138 171.643 219.268 171.422 216.748C171.202 214.228 173.085 211.998 175.62 211.776ZM176.35 224.437C176.263 223.891 176.636 223.379 177.181 223.293C177.727 223.206 178.239 223.578 178.325 224.124L179.026 228.548C179.112 229.094 178.74 229.606 178.195 229.692C177.649 229.779 177.137 229.407 177.051 228.861L176.35 224.437Z" fill="#00BBC4"/>
<path fill-rule="evenodd" clip-rule="evenodd" d="M137.933 203.889L157.822 234.447L173.727 224.345L154.124 193.376L137.933 203.889Z" fill="#00BBC4"/>
<path fill-rule="evenodd" clip-rule="evenodd" d="M141.545 204.643L153.321 196.997L170.129 223.55L158.612 230.865L141.545 204.643Z" fill="#6CD8E3"/>
<path fill-rule="evenodd" clip-rule="evenodd" d="M148.413 202.562C147.95 202.863 147.818 203.482 148.119 203.945L150.558 207.702C150.859 208.165 151.479 208.297 151.942 207.996C152.405 207.695 152.537 207.076 152.236 206.613L149.796 202.856C149.495 202.393 148.876 202.261 148.413 202.562ZM153.385 209.355C155.632 208.16 158.427 209.005 159.614 211.239C160.802 213.472 159.94 216.262 157.693 217.456C155.446 218.651 152.651 217.806 151.464 215.573C150.276 213.339 151.138 210.55 153.385 209.355ZM159.004 220.725C158.711 220.256 158.854 219.639 159.322 219.347C159.79 219.054 160.407 219.196 160.7 219.665L163.074 223.464C163.367 223.932 163.224 224.549 162.756 224.841C162.287 225.134 161.67 224.992 161.378 224.523L159.004 220.725Z" fill="#00BBC4"/>
<path fill-rule="evenodd" clip-rule="evenodd" d="M306.646 135.913L285.764 165.801L301.088 176.763L322.459 146.986L306.646 135.913Z" fill="#00BBC4"/>
<path fill-rule="evenodd" clip-rule="evenodd" d="M307.3 139.544L318.801 147.598L300.477 173.129L289.381 165.191L307.3 139.544Z" fill="#6CD8E3"/>
<path fill-rule="evenodd" clip-rule="evenodd" d="M311.802 145.132C311.35 144.816 310.727 144.925 310.41 145.378L307.84 149.047C307.524 149.5 307.634 150.123 308.086 150.44C308.538 150.757 309.162 150.647 309.479 150.194L312.048 146.525C312.365 146.073 312.255 145.449 311.802 145.132ZM307.367 152.287C309.316 153.923 309.579 156.831 307.953 158.768C306.328 160.706 303.419 160.952 301.469 159.316C299.52 157.68 299.256 154.773 300.882 152.835C302.508 150.897 305.417 150.652 307.367 152.287ZM298.93 161.756C299.255 161.309 299.88 161.21 300.327 161.535C300.774 161.859 300.873 162.485 300.548 162.932L297.915 166.556C297.59 167.002 296.965 167.101 296.518 166.777C296.071 166.452 295.972 165.827 296.297 165.38L298.93 161.756Z" fill="#00BBC4"/>
<path fill-rule="evenodd" clip-rule="evenodd" d="M287.098 123.893L286.499 160.348L305.333 160.867L306.399 124.231L287.098 123.893Z" fill="#00BBC4"/>
<path fill-rule="evenodd" clip-rule="evenodd" d="M289.67 126.538L303.709 126.784L302.794 158.197L289.156 157.821L289.67 126.538Z" fill="#6CD8E3"/>
<path fill-rule="evenodd" clip-rule="evenodd" d="M296.528 128.653C295.975 128.644 295.52 129.083 295.51 129.636L295.432 134.114C295.423 134.667 295.862 135.122 296.415 135.132C296.967 135.141 297.422 134.702 297.432 134.149L297.51 129.67C297.52 129.118 297.08 128.663 296.528 128.653ZM296.851 137.066C299.382 137.332 301.226 139.595 300.962 142.11C300.698 144.626 298.423 146.456 295.892 146.19C293.361 145.924 291.517 143.661 291.782 141.145C292.046 138.63 294.32 136.8 296.851 137.066ZM295.152 149.633C295.171 149.081 295.634 148.649 296.186 148.669C296.738 148.688 297.17 149.151 297.151 149.703L296.994 154.18C296.975 154.732 296.512 155.163 295.96 155.144C295.408 155.125 294.976 154.662 294.996 154.11L295.152 149.633Z" fill="#00BBC4"/>
<path fill-rule="evenodd" clip-rule="evenodd" d="M252.905 52.2666L266.598 86.0576L284.137 79.1761L270.804 45.0354L252.905 52.2666Z" fill="#00BBC4"/>
<path fill-rule="evenodd" clip-rule="evenodd" d="M256.306 53.6963L269.325 48.4369L280.757 77.7096L268.056 82.6927L256.306 53.6963Z" fill="#6CD8E3"/>
<path fill-rule="evenodd" clip-rule="evenodd" d="M263.445 52.9635C262.933 53.1704 262.686 53.7532 262.892 54.2653L264.57 58.4186C264.777 58.9307 265.36 59.1781 265.872 58.9712C266.384 58.7643 266.632 58.1815 266.425 57.6694L264.747 53.5161C264.54 53.004 263.957 52.7566 263.445 52.9635ZM267.03 60.5806C269.464 59.8366 272.045 61.1993 272.785 63.6183C273.525 66.0373 272.146 68.6107 269.712 69.3548C267.279 70.0988 264.697 68.7361 263.958 66.3171C263.218 63.8981 264.596 61.3247 267.03 60.5806ZM270.376 72.8132C270.178 72.2976 270.436 71.7191 270.951 71.5212C271.467 71.3233 272.045 71.5808 272.243 72.0964L273.849 76.2784C274.046 76.794 273.789 77.3724 273.273 77.5703C272.758 77.7683 272.179 77.5107 271.981 76.9951L270.376 72.8132Z" fill="#00BBC4"/>
<path fill-rule="evenodd" clip-rule="evenodd" d="M276.675 40.6889L276.076 77.1439L294.91 77.6627L295.976 41.0262L276.675 40.6889Z" fill="#00BBC4"/>
<path fill-rule="evenodd" clip-rule="evenodd" d="M279.247 43.3339L293.285 43.5794L292.371 74.9921L278.733 74.6163L279.247 43.3339Z" fill="#6CD8E3"/>
<path fill-rule="evenodd" clip-rule="evenodd" d="M286.104 45.4487C285.552 45.4391 285.097 45.8789 285.087 46.4311L285.009 50.9099C284.999 51.4621 285.439 51.9176 285.991 51.9272C286.543 51.9369 286.999 51.497 287.009 50.9448L287.087 46.466C287.096 45.9138 286.657 45.4584 286.104 45.4487ZM286.428 53.8611C288.959 54.1271 290.803 56.3902 290.539 58.9059C290.274 61.4216 288 63.2519 285.469 62.9858C282.938 62.7198 281.094 60.4567 281.358 57.941C281.623 55.4253 283.897 53.595 286.428 53.8611ZM284.729 66.4286C284.748 65.8766 285.211 65.4448 285.763 65.4641C286.315 65.4834 286.747 65.9464 286.727 66.4984L286.571 70.9752C286.552 71.5271 286.089 71.9589 285.537 71.9397C284.985 71.9204 284.553 71.4573 284.572 70.9054L284.729 66.4286Z" fill="#00BBC4"/>
<path fill-rule="evenodd" clip-rule="evenodd" d="M302.007 47.5189L286.057 80.3051L302.908 88.735L319.357 55.9816L302.007 47.5189Z" fill="#00BBC4"/>
<path fill-rule="evenodd" clip-rule="evenodd" d="M303.22 51.0032L315.839 57.1585L301.735 85.2417L289.534 79.1374L303.22 51.0032Z" fill="#6CD8E3"/>
<path fill-rule="evenodd" clip-rule="evenodd" d="M308.542 55.818C308.045 55.5759 307.446 55.782 307.204 56.2784L305.241 60.3045C304.999 60.8009 305.205 61.3996 305.701 61.6417C306.198 61.8838 306.796 61.6777 307.038 61.1813L309.002 57.1552C309.244 56.6588 309.038 56.0601 308.542 55.818ZM305.28 63.579C307.461 64.8897 308.176 67.7201 306.873 69.8883C305.57 72.0566 302.736 72.7542 300.554 71.4435C298.373 70.1328 297.658 67.3024 298.961 65.1341C300.264 62.9659 303.098 62.2682 305.28 63.579ZM298.428 74.2508C298.679 73.7587 299.281 73.563 299.773 73.8137C300.265 74.0645 300.461 74.6666 300.21 75.1587L298.177 79.15C297.926 79.6421 297.324 79.8377 296.832 79.587C296.339 79.3363 296.144 78.7341 296.395 78.242L298.428 74.2508Z" fill="#00BBC4"/>
<path fill-rule="evenodd" clip-rule="evenodd" d="M103.674 80.1225C105.733 78.5666 109.269 78.8105 112.269 80.8992C115.269 82.9879 116.768 86.2488 116.081 88.7604L116.266 88.8888L115.573 89.9137L115.571 89.912L115.511 90.0062C113.807 92.53 109.668 92.6697 106.181 90.3571L105.977 90.2182C102.448 87.7619 100.997 83.6847 102.734 81.1112L102.798 81.0196L102.797 81.0189L103.489 79.9938L103.674 80.1225Z" fill="#FFA900"/>
<path fill-rule="evenodd" clip-rule="evenodd" d="M116.266 88.8889C118.003 86.3154 116.552 82.2382 113.023 79.7818C109.495 77.3255 105.226 77.4206 103.489 79.9939C101.751 82.5674 103.203 86.6446 106.731 89.1009C110.259 91.557 114.528 91.4622 116.266 88.8889Z" fill="#FFC74A"/>
<path fill-rule="evenodd" clip-rule="evenodd" d="M116.426 88.6298C116.376 88.7175 116.323 88.8041 116.266 88.8888C115.302 90.3158 113.56 90.9793 111.597 90.8697C113.312 90.4262 114.937 89.6224 116.426 88.6298ZM110.216 78.395C110.244 78.577 110.248 78.7604 110.219 78.9473C110.178 79.2106 109.903 79.678 109.687 79.8789C108.901 80.6095 107.797 80.9225 106.657 80.8637C105.554 80.8068 104.501 80.4706 103.512 79.9623C104.812 78.0757 107.487 77.5437 110.216 78.395Z" fill="#FFE39C"/>
<path fill-rule="evenodd" clip-rule="evenodd" d="M107.438 87.796C110.149 89.6837 113.411 89.6397 114.722 87.6974C116.034 85.7551 114.899 82.6503 112.187 80.7626C109.476 78.8749 106.214 78.9191 104.903 80.8614C103.591 82.8037 104.726 85.9083 107.438 87.796Z" fill="#FF9700"/>
<path fill-rule="evenodd" clip-rule="evenodd" d="M107.441 88.0487C110.088 89.8909 113.262 89.8593 114.533 87.9781C115.803 86.0969 114.688 83.0788 112.041 81.2366C109.395 79.3944 106.22 79.4258 104.95 81.307C103.68 83.1881 104.795 86.2065 107.441 88.0487Z" fill="#FFA900"/>
<path fill-rule="evenodd" clip-rule="evenodd" d="M112.905 87.7691C110.512 88.8656 107.826 89.1501 105.47 88.0734C103.684 86.3773 102.7 84.2426 102.759 82.3454C104.177 83.0278 105.697 83.4242 107.288 83.3462C109.028 83.2609 110.742 82.557 111.844 81.1475C112.236 80.6465 112.48 80.0848 112.596 79.5009C112.739 79.5908 112.882 79.6836 113.023 79.782C115.115 81.2379 116.476 83.2632 116.877 85.2076C115.648 86.2283 114.303 87.1284 112.905 87.7691Z" fill="white" fill-opacity="0.2"/>
<path fill-rule="evenodd" clip-rule="evenodd" d="M125.829 70.4312C128.386 70.7873 130.713 73.4598 131.358 77.0582C132.002 80.6567 130.756 84.0222 128.494 85.3123L128.534 85.5338L127.32 85.7691L127.32 85.7663L127.211 85.7905C124.221 86.37 121.195 83.542 120.365 79.441L120.319 79.1984C119.561 74.9665 121.417 71.0572 124.466 70.4661L124.576 70.4463L124.575 70.445L125.789 70.2096L125.829 70.4312Z" fill="#FFA900"/>
<path fill-rule="evenodd" clip-rule="evenodd" d="M128.534 85.5339C131.583 84.9429 133.439 81.0334 132.681 76.8016C131.923 72.5699 128.838 69.6187 125.789 70.2097C122.741 70.8007 120.884 74.71 121.642 78.9418C122.4 83.1734 125.486 86.1248 128.534 85.5339Z" fill="#FFC74A"/>
<path fill-rule="evenodd" clip-rule="evenodd" d="M128.831 85.4643C128.734 85.4907 128.635 85.5144 128.534 85.5338C126.844 85.8615 125.143 85.0985 123.833 83.6335C125.359 84.5324 127.076 85.1131 128.831 85.4643ZM131.677 73.836C131.568 73.984 131.441 74.1169 131.288 74.2284C131.073 74.3854 130.548 74.5217 130.253 74.5107C129.181 74.4718 128.179 73.9125 127.415 73.0651C126.675 72.2446 126.168 71.2622 125.828 70.2036C128.082 69.7889 130.349 71.304 131.677 73.836Z" fill="#FFE39C"/>
<path fill-rule="evenodd" clip-rule="evenodd" d="M123.065 78.519C123.647 81.7712 125.985 84.046 128.285 83.6C130.586 83.154 131.979 80.1561 131.396 76.9038C130.814 73.6516 128.476 71.3767 126.176 71.8229C123.875 72.2689 122.482 75.2668 123.065 78.519Z" fill="#FF9700"/>
<path fill-rule="evenodd" clip-rule="evenodd" d="M122.889 78.7002C123.457 81.874 125.724 84.0966 127.953 83.6646C130.181 83.2326 131.527 80.3097 130.958 77.136C130.39 73.9621 128.123 71.7395 125.894 72.1715C123.666 72.6034 122.32 75.5265 122.889 78.7002Z" fill="#FFA900"/>
<path fill-rule="evenodd" clip-rule="evenodd" d="M126.949 82.3655C124.482 81.4491 122.382 79.751 121.477 77.3238C121.414 74.8617 122.228 72.6564 123.61 71.3563C124.13 72.8412 124.925 74.1968 126.105 75.2663C127.396 76.4363 129.106 77.1505 130.882 76.9333C131.513 76.8561 132.083 76.6318 132.578 76.3007C132.616 76.4658 132.651 76.6323 132.681 76.8017C133.13 79.31 132.661 81.7049 131.569 83.3629C129.979 83.2159 128.391 82.9009 126.949 82.3655Z" fill="white" fill-opacity="0.2"/>
<path fill-rule="evenodd" clip-rule="evenodd" d="M110.829 62.4312C113.386 62.7873 115.713 65.4598 116.358 69.0582C117.002 72.6567 115.756 76.0222 113.494 77.3123L113.534 77.5338L112.32 77.7691L112.32 77.7663L112.211 77.7905C109.221 78.37 106.195 75.542 105.365 71.441L105.319 71.1984C104.561 66.9665 106.417 63.0572 109.466 62.4661L109.576 62.4463L109.575 62.445L110.789 62.2096L110.829 62.4312Z" fill="#FFA900"/>
<path fill-rule="evenodd" clip-rule="evenodd" d="M113.534 77.5339C116.583 76.9429 118.439 73.0334 117.681 68.8016C116.923 64.5699 113.838 61.6187 110.789 62.2097C107.741 62.8007 105.884 66.71 106.642 70.9418C107.4 75.1734 110.486 78.1248 113.534 77.5339Z" fill="#FFC74A"/>
<path fill-rule="evenodd" clip-rule="evenodd" d="M113.831 77.4643C113.734 77.4907 113.635 77.5144 113.534 77.5338C111.844 77.8615 110.143 77.0985 108.833 75.6335C110.359 76.5324 112.076 77.1131 113.831 77.4643ZM116.677 65.836C116.568 65.984 116.441 66.1169 116.288 66.2284C116.073 66.3854 115.548 66.5217 115.253 66.5107C114.181 66.4718 113.179 65.9125 112.415 65.0651C111.675 64.2446 111.168 63.2622 110.828 62.2036C113.082 61.7889 115.349 63.304 116.677 65.836Z" fill="#FFE39C"/>
<path fill-rule="evenodd" clip-rule="evenodd" d="M108.065 70.519C108.647 73.7712 110.985 76.046 113.285 75.6C115.586 75.154 116.979 72.1561 116.396 68.9038C115.814 65.6516 113.476 63.3767 111.176 63.8229C108.875 64.2689 107.482 67.2668 108.065 70.519Z" fill="#FF9700"/>
<path fill-rule="evenodd" clip-rule="evenodd" d="M107.889 70.7002C108.457 73.874 110.724 76.0966 112.953 75.6646C115.181 75.2326 116.527 72.3097 115.958 69.136C115.39 65.9621 113.123 63.7395 110.894 64.1715C108.666 64.6034 107.32 67.5265 107.889 70.7002Z" fill="#FFA900"/>
<path fill-rule="evenodd" clip-rule="evenodd" d="M111.949 74.3655C109.482 73.4491 107.382 71.751 106.477 69.3238C106.414 66.8617 107.228 64.6564 108.61 63.3563C109.13 64.8412 109.925 66.1968 111.105 67.2663C112.396 68.4363 114.106 69.1505 115.882 68.9333C116.513 68.8561 117.083 68.6318 117.578 68.3007C117.616 68.4658 117.651 68.6323 117.681 68.8017C118.13 71.31 117.661 73.7049 116.569 75.3629C114.979 75.2159 113.391 74.9009 111.949 74.3655Z" fill="white" fill-opacity="0.2"/>
<path fill-rule="evenodd" clip-rule="evenodd" d="M111.012 89.5356L111.453 90.332L112.26 90.7676L111.453 91.2033L111.012 92L110.57 91.2033L109.763 90.7676L110.57 90.332L111.012 89.5356ZM108.043 80.3875L108.415 81.0598L109.096 81.4272L108.415 81.7949L108.043 82.467L107.67 81.7949L106.989 81.4272L107.67 81.0598L108.043 80.3875ZM120.973 76.8644L121.483 77.7837L122.415 78.2864L121.483 78.7891L120.973 79.7083L120.464 78.7891L119.532 78.2864L120.464 77.7837L120.973 76.8644ZM107.012 63.285L107.723 64.568L109.023 65.2696L107.723 65.9715L107.012 67.2547L106.301 65.9715L105 65.2696L106.301 64.568L107.012 63.285ZM124.9 67L125.643 68.3393L127 69.072L125.643 69.8045L124.9 71.144L124.157 69.8045L122.8 69.072L124.157 68.3393L124.9 67Z" fill="white"/>
</svg>
