<svg width="20" height="20" viewBox="0 0 20 20" fill="none" xmlns="http://www.w3.org/2000/svg">
<path fill-rule="evenodd" clip-rule="evenodd" d="M13.3329 1.66663C13.7931 1.66663 14.1662 2.03972 14.1662 2.49996C14.1662 2.651 14.1252 2.79919 14.0475 2.92871L12.7002 5.17319C13.6774 5.98873 15.7459 8.18901 16.998 11.9659C17.7176 14.1375 17.6619 15.9625 16.8417 17.1034C16.2602 17.9075 15.3202 18.3334 14.1223 18.3334H5.85442C4.70812 18.3334 3.78641 17.8967 3.19163 17.0709C2.35062 15.9017 2.27326 14.0884 2.97785 11.9659C4.23816 8.16353 6.31839 5.9599 7.29122 5.15735L5.95163 2.92933C5.71449 2.53489 5.84202 2.02289 6.23646 1.78576C6.36612 1.70781 6.51455 1.66663 6.66583 1.66663H13.3329ZM8.33167 6.66579L8.08262 6.66663C6.85657 7.76163 5.44223 9.81975 4.55656 12.4918C4.00549 14.1518 4.05912 15.426 4.54085 16.0957C4.8109 16.4707 5.22446 16.6667 5.85442 16.6667H14.1223C14.8115 16.6667 15.2427 16.4721 15.4929 16.1275C15.9474 15.4931 15.9861 14.2023 15.4191 12.4912C14.5348 9.82364 13.1222 7.77109 11.8886 6.66663L11.6667 6.66579L11.6666 6.66663H8.33327L8.33167 6.66579ZM12.2516 9.23088C12.3783 8.89254 12.76 8.72088 13.1033 8.84588C13.4483 8.97004 13.6241 9.34588 13.4966 9.68504L11.6566 14.575C11.53 14.9117 11.1491 15.0842 10.8058 14.96C10.4608 14.8342 10.285 14.4584 10.4116 14.12L12.2516 9.23088ZM8.61663 9.11504C9.1208 9.12004 9.62413 9.17338 10.1183 9.27671C10.1425 9.28171 10.5366 9.41171 10.48 9.89338C10.4233 10.3734 9.99247 10.3992 9.96413 10.395C9.6058 10.3359 9.24497 10.3017 8.88163 10.2925C8.4933 10.2925 8.05413 10.3109 8.05413 10.68C8.05413 11.0484 8.29496 11.0767 8.8608 11.2284C10.0183 11.5334 10.37 12.01 10.37 12.9734C10.37 14.2359 9.6058 14.69 8.27746 14.69C7.7608 14.6884 7.2458 14.635 6.7408 14.5317C6.6833 14.52 6.26663 14.4134 6.34246 13.8809C6.41913 13.3484 6.83413 13.3692 6.89413 13.3784C7.32663 13.4384 7.7608 13.475 8.19746 13.4884C8.67413 13.4884 8.87247 13.3575 8.87247 13.04C8.87247 12.735 8.67746 12.6317 8.17913 12.4759C7.19246 12.1709 6.59913 11.8109 6.59913 10.7625C6.59913 9.51421 7.31746 9.11504 8.61663 9.11504ZM11.8611 3.33329H8.13915L9.07838 4.89558L9.15802 4.99996H10.8436L10.9241 4.89492L11.8611 3.33329Z" fill="#002A8D"/>
</svg>
