<svg width="16" height="16" viewBox="0 0 16 16" fill="none" xmlns="http://www.w3.org/2000/svg">
<path fill-rule="evenodd" clip-rule="evenodd" d="M7.08279 4.16931L7.36773 4.26712L7.57844 4.34555C7.7813 4.42484 7.97483 4.51257 8.28719 4.66158C8.61946 4.82009 8.76023 5.21774 8.6016 5.54977C8.44298 5.8818 8.04503 6.02246 7.71277 5.86395L7.43328 5.73254L7.21524 5.6361C7.04733 5.56543 6.89918 5.51294 6.66016 5.43297C5.91073 5.18314 5.05476 5.39238 4.75004 5.94936C4.61907 6.18928 4.64616 6.5034 4.80343 6.68604C4.91562 6.81615 5.07303 6.91999 5.33223 7.03676L5.58639 7.14371L5.72642 7.19993C5.83621 7.24408 5.94217 7.28303 6.09136 7.33428L6.34735 7.42056C7.07481 7.66324 7.40878 7.79958 7.81611 8.06436C9.349 9.05715 8.63768 11.603 6.57629 11.9603C5.72388 12.0575 4.95516 11.9432 4.29162 11.6912C3.98161 11.5734 3.75548 11.4504 3.61961 11.356C3.31723 11.1461 3.2424 10.731 3.45247 10.4288C3.64638 10.1499 4.01526 10.0648 4.3087 10.2184L4.4436 10.3003C4.51238 10.3386 4.62083 10.3908 4.7654 10.4458C5.23862 10.6255 5.79558 10.7083 6.38645 10.6421C7.27141 10.4882 7.55269 9.48149 7.08999 9.18182C6.85449 9.02873 6.63439 8.92939 6.20771 8.78048L5.57253 8.56469C5.51742 8.54537 5.46676 8.52716 5.41808 8.50913L4.98046 8.3357L4.93414 8.31644C4.42933 8.10493 4.08617 7.89534 3.79304 7.5554C3.26665 6.94408 3.18774 6.02903 3.57983 5.31078C4.0593 4.43436 5.01281 4.00231 5.99998 3.99999C6.36389 3.99913 6.73136 4.05215 7.08279 4.16931ZM12.1915 4.02805C12.5442 4.13385 12.7443 4.5055 12.6385 4.85816L10.6385 11.5248C10.5327 11.8775 10.1611 12.0776 9.80841 11.9718C9.45575 11.866 9.25563 11.4944 9.36143 11.1417L11.3614 4.47503C11.4672 4.12237 11.8389 3.92225 12.1915 4.02805Z" fill="#002A8D"/>
</svg>
