<svg width="150" height="170" viewBox="0 0 150 170" fill="none" xmlns="http://www.w3.org/2000/svg">
<path fill-rule="evenodd" clip-rule="evenodd" d="M86.1685 42.5461C86.1685 42.5461 93.8725 42.9561 91.7525 50.0838C89.7865 56.6962 96.3263 56.3685 93.4912 62.0169C91.1092 66.7606 85.7094 66.105 88.4462 72.1948C94.8856 86.5206 75.3154 88.152 75.5609 79.1581C75.8043 70.1631 67.027 83.7012 67.027 83.7012C67.027 83.7012 59.5829 88.5828 55.1812 87.7446C52.939 87.3199 51.3592 85.7101 51.3604 82.3199C51.8239 77.0669 55.6004 75.7568 54.9225 70.8368C54.3392 66.5973 50.698 65.0177 51.4694 60.3998C52.6731 53.1898 59.1997 55.292 58.1325 48.1473C57.2605 42.3199 62.69 36.9485 67.4149 38.533C72.8649 40.3605 71.5787 36.5977 77.2202 35.6047C84.0325 34.4061 86.1685 40.7415 86.1685 42.5461Z" fill="#0A1B64"/>
<path fill-rule="evenodd" clip-rule="evenodd" d="M61.4394 81.729C51.0706 88.8313 30.71 95.3261 24.9164 83.704C20.3961 74.64 25.8039 61.5843 36.0424 55.0772L29.3158 50.4544L23.4851 49.9839C23.4851 49.9839 4.76055 64.5622 8.49635 85.2265C12.6406 108.143 36.4376 110.335 41.7844 109.675C41.7844 109.675 59.1722 94.3922 59.6383 93.8769C60.1029 93.3622 66.438 84.3316 61.4394 81.729Z" fill="#FECC6C"/>
<path fill-rule="evenodd" clip-rule="evenodd" d="M53.6374 86.037C47.766 88.6879 40.9915 90.5034 35.3357 90.0331C32.8995 92.44 28.1264 98.768 31.1639 108.59C35.8615 109.789 39.9315 109.904 41.7845 109.676C41.7845 109.676 48.0511 104.168 53.1619 99.6524L53.6374 86.037Z" fill="#9992FE"/>
<path fill-rule="evenodd" clip-rule="evenodd" d="M14.7936 98.9175C23.4953 109.066 37.7893 110.168 41.7839 109.676C41.7839 109.676 43.5482 108.125 45.9641 105.998C46.1964 104.172 46.3593 102.801 46.3593 102.801C29.0936 110.754 15.1242 99.1943 14.7936 98.9175Z" fill="#FEA231"/>
<path fill-rule="evenodd" clip-rule="evenodd" d="M30.4188 105.363C30.5769 106.393 30.8177 107.466 31.165 108.589C35.5356 109.998 41.4526 110.233 44.0708 109.602C44.0708 109.602 43.5474 108.127 45.9645 105.998C46.1968 104.172 46.3598 102.801 46.3598 102.801C40.5386 105.482 35.0948 105.939 30.4188 105.363Z" fill="#473CDF"/>
<path d="M91.5075 107.631L87.3983 114.368C87.3983 114.368 87.3964 114.374 87.3953 114.378C87.3966 114.375 87.4006 114.368 87.4006 114.368L104.338 87.4127C99.866 77.0097 95.7038 77.5689 91.0324 78.3899C87.2747 79.0491 83.452 82.3282 78.7519 79.8774C76.1275 78.5099 68.0428 76.9663 68.0428 76.9663L61.4396 81.7295C58.8163 83.505 56.077 84.9141 52.8574 86.3655C50.5302 88.3621 46.3859 93.3204 43.4466 100.547C38.6353 112.384 45.0456 115.775 42.8322 121.373C38.7588 131.671 25.4551 147.452 24.9833 148H55.3917C72.0161 146.216 91.5075 107.631 91.5075 107.631Z" fill="#9992FE"/>
<path fill-rule="evenodd" clip-rule="evenodd" d="M34.8771 55.5486C32.5127 55.5486 30.0693 54.1177 28.0582 51.4338C26.6677 49.582 25.4148 46.2461 25.9454 43.2974C26.2772 41.4528 27.2558 39.9652 28.7733 38.9975C32.6468 36.5338 36.1814 38.6202 37.614 40.6243C38.2739 41.5472 38.0679 42.8353 37.1528 43.5018C36.2413 44.167 34.9633 43.9602 34.3033 43.0361C33.9045 42.5052 32.7391 41.3452 30.952 42.4846C30.4046 42.8329 30.0896 43.3264 29.9614 44.0327C29.6788 45.6039 30.4262 47.7641 31.3113 48.9446C31.8958 49.7248 33.944 52.1885 35.7862 51.1798C37.3157 50.3331 36.9899 49.3377 36.9743 49.2954C36.5994 48.2213 37.1576 47.0456 38.2212 46.6659C39.2884 46.2921 40.4502 46.8534 40.8251 47.925C41.3473 49.4248 41.3773 52.7896 37.7433 54.7962C36.8258 55.3018 35.858 55.5486 34.8771 55.5486Z" fill="#FECC6C"/>
<path fill-rule="evenodd" clip-rule="evenodd" d="M27.3037 48.6185C26.3431 48.6185 25.4867 47.9315 25.301 46.9433C23.8386 39.2036 27.5504 32.3469 27.7097 32.0603C28.2571 31.0636 29.5016 30.708 30.4849 31.2595C31.4694 31.8123 31.824 33.0666 31.279 34.0596C31.2359 34.1394 28.1337 39.9451 29.3111 46.1716C29.5231 47.2892 28.7961 48.3682 27.6882 48.5822C27.56 48.6064 27.4306 48.6185 27.3037 48.6185Z" fill="#FECC6C"/>
<path fill-rule="evenodd" clip-rule="evenodd" d="M26.2347 50.1078C25.6047 50.1078 24.983 49.8138 24.583 49.2599C19.8028 42.6257 22.7372 33.5302 22.8654 33.1467C23.2223 32.0678 24.3722 31.4848 25.449 31.8453C26.5162 32.2069 27.0935 33.3729 26.7377 34.4518C26.6982 34.574 24.3638 41.9508 27.884 46.8336C28.5476 47.754 28.3463 49.0434 27.4348 49.7134C27.0719 49.9795 26.6527 50.1078 26.2347 50.1078Z" fill="#FECC6C"/>
<path fill-rule="evenodd" clip-rule="evenodd" d="M25.384 53.2723C24.8869 53.2723 24.3874 53.0908 23.9946 52.7207C17.1422 46.2922 17.9986 37.7941 18.0381 37.4361C18.1651 36.3052 19.1736 35.4803 20.2935 35.617C21.411 35.744 22.2159 36.7588 22.0961 37.886C22.0674 38.163 21.4661 44.7222 26.7734 49.7018C27.5998 50.4746 27.6465 51.7809 26.8787 52.6143C26.4775 53.0509 25.9313 53.2723 25.384 53.2723Z" fill="#FECC6C"/>
<path fill-rule="evenodd" clip-rule="evenodd" d="M59.6597 37.1576C59.3761 37.1708 59.1172 36.9725 59.0609 36.6798C59.0525 36.6399 58.7878 35.509 57.1828 35.0131C55.2257 34.4107 51.5953 36.2298 50.3604 36.9821C50.0849 37.1503 49.7268 37.062 49.5591 36.7826C49.3938 36.5044 49.4812 36.1428 49.7567 35.9746C49.9555 35.8525 54.6675 33.0053 57.5229 33.887C59.8274 34.597 60.1916 36.3822 60.2071 36.4584C60.2672 36.7777 60.0608 37.085 59.7436 37.1478C59.716 37.1527 59.6873 37.1563 59.6597 37.1576Z" fill="#06A0FF"/>
<path fill-rule="evenodd" clip-rule="evenodd" d="M52.5971 35.2087L52.3228 35.9659C52.3228 35.9659 51.7754 36.1376 51.9694 36.8174C52.1587 37.4875 52.9816 40.6818 49.1571 42.5214C44.9913 44.5232 43.6259 40.718 41.8364 41.6433C40.0757 42.5529 42.6736 45.9262 38.5282 47.9292C36.0249 49.1387 34.0055 47.7986 32.7682 45.665C32.6388 45.4412 32.7107 45.1534 32.9382 45.0312L50.9082 35.3454L52.5971 35.2087Z" fill="#06A0FF"/>
<path fill-rule="evenodd" clip-rule="evenodd" d="M28.609 42.1174C28.603 42.1174 28.5959 42.1162 28.5887 42.1162C28.5096 42.1041 28.4533 42.0316 28.4641 41.9493C28.6869 40.2753 29.4559 38.5627 29.4882 38.4901C29.5217 38.4151 29.6056 38.3836 29.6822 38.4175C29.7541 38.4514 29.7864 38.5385 29.7529 38.6135C29.7457 38.6291 28.9708 40.3588 28.754 41.9904C28.7432 42.063 28.6821 42.1174 28.609 42.1174Z" fill="#003CE5"/>
<path fill-rule="evenodd" clip-rule="evenodd" d="M26.2818 43.0031C26.2184 43.0031 26.1596 42.9608 26.1417 42.8967C25.0613 39.1472 26.6507 34.0153 26.6663 33.9632C26.6915 33.887 26.7681 33.8447 26.8508 33.8677C26.9262 33.8931 26.9693 33.9754 26.9454 34.054C26.9286 34.1048 25.3667 39.152 26.422 42.8145C26.4447 42.8919 26.4004 42.9741 26.3225 42.9971C26.3082 43.0007 26.295 43.0031 26.2818 43.0031Z" fill="#003CE5"/>
<path fill-rule="evenodd" clip-rule="evenodd" d="M23.624 45.3596C23.5665 45.3596 23.5114 45.3246 23.4887 45.2665C21.722 40.8288 21.8046 37.1386 21.8046 37.1011C21.807 37.0212 21.8729 36.9584 21.9519 36.9584H21.9555C22.0358 36.9608 22.1004 37.0285 22.0981 37.1107C22.0968 37.1458 22.0166 40.7792 23.7593 45.1576C23.7893 45.2326 23.7522 45.3185 23.6779 45.3487C23.6599 45.356 23.6432 45.3596 23.624 45.3596Z" fill="#003CE5"/>
<path fill-rule="evenodd" clip-rule="evenodd" d="M23.0215 46.3483C22.9987 46.3483 22.976 46.3422 22.9544 46.3313C22.8838 46.2938 22.8551 46.2055 22.8922 46.133C22.9101 46.0979 24.7463 42.5806 28.5803 41.8259C28.6606 41.8065 28.736 41.8621 28.7504 41.9408C28.7672 42.0218 28.7145 42.098 28.6354 42.1137C24.9439 42.8419 23.1689 46.2334 23.1509 46.2684C23.1257 46.3193 23.0742 46.3483 23.0215 46.3483Z" fill="#003CE5"/>
<path fill-rule="evenodd" clip-rule="evenodd" d="M108.86 67.9558C108.335 67.9558 107.91 67.5258 107.91 66.9956C107.905 66.6653 107.786 63.7217 104.667 63.7217C104.142 63.7217 103.717 63.2916 103.717 62.7615C103.717 62.2313 104.142 61.8004 104.667 61.8004C107.782 61.8004 107.905 58.8644 107.91 58.524C107.911 57.9959 108.335 57.5671 108.86 57.5671C109.38 57.5671 109.802 57.9884 109.811 58.5102V58.5111V58.5123V58.514V58.5157V58.5165V58.5186V58.5202V58.5211V58.5223V58.524C109.814 58.8644 109.937 61.8004 113.052 61.8004C113.577 61.8004 114.003 62.2313 114.003 62.7615C114.003 63.2916 113.577 63.7217 113.052 63.7217C109.902 63.7217 109.811 66.6607 109.811 66.9956C109.811 67.5258 109.385 67.9558 108.86 67.9558Z" fill="#5E86FF"/>
<path fill-rule="evenodd" clip-rule="evenodd" d="M89.5438 78.7679C84.7134 82.2937 80.9238 96.2866 87.8719 103.796C87.8719 103.796 91.6059 114.828 101.28 109.933C110.953 105.038 107.244 94.2002 107.244 94.2002C104.635 73.6261 92.7408 77.8257 89.5438 78.7679Z" fill="#9992FE"/>
<path fill-rule="evenodd" clip-rule="evenodd" d="M81.6736 80.7451C81.6747 80.7412 81.6758 80.739 81.6775 80.7351C80.7372 80.6567 79.7655 80.4066 78.7524 79.8779C76.127 78.5088 68.0417 76.9663 68.0417 76.9663L61.4385 81.7284C60.7179 82.217 59.9332 82.6995 59.1139 83.1748L59.1235 83.2026C59.1235 83.2026 58.5521 90.5567 65.583 91.4867C72.616 92.4144 79.43 87.0142 81.6736 80.7451Z" fill="#473CDF"/>
<path fill-rule="evenodd" clip-rule="evenodd" d="M61.4633 83.3366C61.1493 81.4511 61.0897 79.7902 61.2475 76.2988C61.3077 74.9764 60.9374 73.6678 60.166 72.5989C57.9381 69.5122 57.3872 64.8251 60.0689 57.1C61.226 53.7653 63.3509 50.3206 63.3509 50.3206C68.6282 53.3287 72.7892 48.4193 77.1334 48.77C76.5789 49.7775 75.0372 50.4851 73.8106 51.0354C73.5722 51.1419 73.613 51.4987 73.8658 51.5483C76.2064 52.003 78.6067 51.281 79.7914 50.6037C79.5591 51.9293 79.5994 54.0411 81.5494 55.6884C82.2645 56.2932 82.0741 57.1011 81.5207 58.3155C80.9998 59.4621 79.7037 60.9498 80.4717 62.2343L81.7878 61.0079C81.7878 61.0079 82.6756 60.102 83.2312 60.6293C83.8586 61.2232 83.1054 62.0722 83.1054 62.0722C83.1054 62.0722 81.0467 64.1224 79.9266 66.6212C78.3694 70.0964 78.2878 71.4605 77.8005 74.644C77.8005 74.644 77.4088 78.9097 79.0978 80.047C79.0978 80.047 74.7917 88.5995 67.2101 88.5995C62.1591 88.5995 61.4633 83.3366 61.4633 83.3366Z" fill="#FFC74A"/>
<path fill-rule="evenodd" clip-rule="evenodd" d="M61.5402 83.4383C61.2251 81.5512 61.1667 79.8908 61.3234 76.3988C61.3824 75.1131 61.09 73.8396 60.3235 72.8113C58.0284 69.7273 57.4296 65.021 60.1447 57.2003C61.3029 53.8668 63.4268 50.4221 63.4268 50.4221C69.5124 53.8898 75.56 46.8106 80.2276 49.434C80.2276 49.434 78.5485 53.1895 81.6269 55.79C82.3404 56.3947 82.15 57.2015 81.5976 58.4158C81.0768 59.5636 79.7795 61.0501 80.5476 62.3359L81.8636 61.1082C81.8636 61.1082 82.7514 60.2035 83.3071 60.7296C83.9345 61.3247 83.1813 62.1738 83.1813 62.1738C83.1813 62.1738 81.1226 64.2239 80.0024 66.7228C78.4464 70.1976 78.3642 71.5606 77.8775 74.7457C77.8775 74.7457 77.4857 79.0103 79.1737 80.1482C79.1737 80.1482 74.8675 88.7007 67.286 88.7007C62.2349 88.7007 61.5402 83.4383 61.5402 83.4383Z" fill="#FECC6C"/>
<path fill-rule="evenodd" clip-rule="evenodd" d="M75.2606 71.9879C74.7899 70.0685 73.4364 74.9273 65.6584 74.9829C62.3598 75.0068 60.2277 72.5093 59.1235 70.735C59.4276 71.4593 59.8061 72.1163 60.2481 72.7111C60.9428 73.6427 61.3048 74.7817 61.27 75.9407C61.27 75.9407 62.4244 79.6794 65.5839 79.8779C70.4159 80.1803 75.7853 74.1347 75.2606 71.9879Z" fill="#FEA231"/>
<path fill-rule="evenodd" clip-rule="evenodd" d="M64.8582 64.0622C64.7098 64.0622 64.579 64.0453 64.4626 64.0138C64.3097 63.9727 64.1911 63.8554 64.1475 63.7006C64.1045 63.5446 64.1453 63.3801 64.2579 63.2591C65.591 61.8174 66.428 59.6015 66.7255 58.7162C66.7685 58.5928 66.9026 58.5275 67.0262 58.5662C67.1492 58.6085 67.2166 58.7452 67.1746 58.8698C66.8667 59.7842 66.001 62.075 64.6027 63.5857C64.9206 63.6498 65.5386 63.5337 66.4198 63.2168C66.5456 63.1708 66.6786 63.2373 66.7227 63.3619C66.7663 63.4865 66.7012 63.6232 66.5792 63.6679C65.8376 63.9328 65.2787 64.0622 64.8582 64.0622Z" fill="#002199"/>
<path fill-rule="evenodd" clip-rule="evenodd" d="M75.4471 56.6197C72.2434 56.6197 71.2215 54.9385 71.1763 54.8611C70.9727 54.5139 71.0863 54.0676 71.4301 53.8632C71.7728 53.6564 72.2059 53.7713 72.4112 54.1075C72.4625 54.1837 73.3404 55.4344 76.3874 55.109C76.7874 55.0812 77.1394 55.357 77.1814 55.7573C77.2222 56.1577 76.9358 56.5169 76.5397 56.5592C76.1501 56.6004 75.7865 56.6197 75.4471 56.6197Z" fill="#002199"/>
<path fill-rule="evenodd" clip-rule="evenodd" d="M74.7912 60.6038C74.7614 60.6038 74.7305 60.599 74.7018 60.5893C74.4033 60.5011 73.9172 60.5639 73.7527 60.5978C73.6175 60.6232 73.4785 60.5603 73.4139 60.4357C73.0939 59.8406 72.669 59.4923 72.1801 59.427C71.694 59.358 71.2338 59.5879 71.0136 59.8237C70.895 59.9519 70.6964 59.9592 70.5678 59.837C70.4398 59.7173 70.4354 59.5153 70.5551 59.3871C70.8928 59.0242 71.5478 58.694 72.264 58.7956C72.7159 58.8561 73.3444 59.1065 73.8559 59.9362C74.1147 59.9048 74.5396 59.8757 74.8811 59.9798C75.0489 60.0293 75.1438 60.2083 75.093 60.3765C75.0527 60.5143 74.9269 60.6038 74.7912 60.6038Z" fill="#002199"/>
<path fill-rule="evenodd" clip-rule="evenodd" d="M60.5258 55.2189C60.3387 55.2189 60.1517 55.1464 60.0104 55.0012C59.7312 54.7146 59.7351 54.2525 60.0187 53.9707C62.5271 51.4791 65.3009 52.4128 66.4172 53.2547C66.7372 53.4954 66.8018 53.9526 66.5634 54.2743C66.3262 54.5984 65.877 54.6638 65.5559 54.4243C65.3263 54.2549 63.2323 52.8241 61.0323 55.0097C60.8922 55.1488 60.7079 55.2189 60.5258 55.2189Z" fill="#002199"/>
<path fill-rule="evenodd" clip-rule="evenodd" d="M64.368 57.5671C64.368 58.1102 63.9321 58.5504 63.3941 58.5504C62.8556 58.5504 62.4191 58.1102 62.4191 57.5671C62.4191 57.024 62.8556 56.5837 63.3941 56.5837C63.9321 56.5837 64.368 57.024 64.368 57.5671Z" fill="#002199"/>
<path fill-rule="evenodd" clip-rule="evenodd" d="M67.4024 67.3541C67.2479 67.3541 67.0873 67.348 66.9213 67.3359C66.7127 67.3214 66.556 67.1376 66.5714 66.9259C66.5869 66.7166 66.7668 66.5787 66.9775 66.5727C69.6256 66.7662 70.4041 65.0572 70.435 64.9846C70.5167 64.7911 70.7369 64.698 70.93 64.7814C71.1215 64.8624 71.2136 65.0838 71.1336 65.2785C71.0977 65.3668 70.2507 67.3541 67.4024 67.3541Z" fill="#002199"/>
<path d="M66.9702 148H72.6649C80.0777 138.698 87.2698 114.795 87.3949 114.378C87.1996 114.732 72.6268 141.116 66.9702 148Z" fill="#473CDF"/>
<path d="M91.5071 107.631C91.5071 107.631 86.0755 89.0855 83.5566 101.117C81.7119 113.432 77.5999 118.994 74.7902 125.779C72.1264 132.211 65.2677 142.642 55.3913 148H66.9703C72.6269 141.116 87.1996 114.732 87.3949 114.378C87.396 114.374 87.3979 114.368 87.3979 114.368L91.5071 107.631Z" fill="#473CDF"/>
<path fill-rule="evenodd" clip-rule="evenodd" d="M99.5832 121.767C98.1511 121.767 96.7397 121.105 95.8338 119.854C86.8731 107.477 91.9647 90.6639 92.1863 89.953C92.9487 87.5079 95.5411 86.1422 97.983 86.9093C100.42 87.6709 101.778 90.2667 101.025 92.709C100.958 92.9309 97.1413 105.863 103.325 114.404C104.827 116.478 104.366 119.379 102.297 120.883C101.477 121.48 100.525 121.767 99.5832 121.767Z" fill="#FECC6C"/>
<path fill-rule="evenodd" clip-rule="evenodd" d="M106.808 120.563C105.085 120.563 103.43 119.593 102.633 117.931C96 104.092 101.484 92.3148 101.72 91.8203C102.827 89.5081 105.593 88.5369 107.896 89.6437C110.191 90.7464 111.164 93.4997 110.081 95.8052C109.897 96.2049 106.344 104.251 110.977 113.913C112.082 116.222 111.112 118.993 108.81 120.104C108.163 120.416 107.48 120.563 106.808 120.563Z" fill="#FECC6C"/>
<path fill-rule="evenodd" clip-rule="evenodd" d="M114.954 120.563C113.276 120.563 111.657 119.645 110.836 118.046C108.125 112.77 107.343 106.443 108.745 101.125C109.398 98.6487 111.928 97.175 114.402 97.8241C116.873 98.48 118.346 101.018 117.694 103.495C116.885 106.561 117.423 110.604 119.065 113.798C120.235 116.077 119.342 118.874 117.07 120.046C116.392 120.397 115.666 120.563 114.954 120.563Z" fill="#FECC6C"/>
<path fill-rule="evenodd" clip-rule="evenodd" d="M110.049 116.355C109.901 116.355 109.758 116.275 109.684 116.135C106.242 109.572 108.147 101.807 108.23 101.48C108.286 101.259 108.504 101.132 108.73 101.181C108.951 101.237 109.084 101.462 109.028 101.682C109.008 101.759 107.119 109.475 110.414 115.75C110.519 115.952 110.441 116.202 110.242 116.308C110.18 116.339 110.115 116.355 110.049 116.355Z" fill="#003CE5"/>
<path fill-rule="evenodd" clip-rule="evenodd" d="M102.286 118.552C102.148 118.552 102.014 118.482 101.936 118.356C97.3528 110.952 99.718 96.5531 99.8206 95.9437C99.859 95.7203 100.076 95.571 100.295 95.6066C100.519 95.6436 100.67 95.8587 100.633 96.0822C100.607 96.2282 98.2153 110.784 102.636 117.92C102.756 118.115 102.696 118.369 102.503 118.489C102.435 118.532 102.361 118.552 102.286 118.552Z" fill="#003CE5"/>
<path fill-rule="evenodd" clip-rule="evenodd" d="M91.0903 135.334C90.5495 135.822 89.7941 136.137 88.8228 136.28L88.9147 137.804C88.9209 137.909 88.8794 137.965 88.7906 137.97L88.5646 137.982C88.4759 137.987 88.428 137.937 88.4217 137.832L88.333 136.347L87.9603 136.369L88.0491 137.853C88.0554 137.958 88.0144 138.013 87.9257 138.018L87.6997 138.031C87.6109 138.036 87.5631 137.986 87.5568 137.881L87.4649 136.357C86.5911 136.327 85.8892 136.138 85.361 135.79C84.8322 135.441 84.5508 134.982 84.5168 134.413C84.491 133.984 84.6232 133.63 84.914 133.349C85.2042 133.069 85.5933 132.916 86.0812 132.888C86.6137 132.858 87.0607 132.96 87.4221 133.195C87.7834 133.429 87.976 133.744 88 134.138C88.0182 134.453 87.925 134.714 87.7192 134.919C87.5133 135.123 87.225 135.245 86.853 135.284C86.8026 135.339 86.7799 135.397 86.7831 135.459C86.7875 135.52 86.8164 135.567 86.8718 135.599C86.9272 135.631 86.9996 135.645 87.0884 135.64C87.4875 135.617 87.8187 135.458 88.0812 135.162C88.3437 134.865 88.4633 134.516 88.4387 134.113C88.4117 133.657 88.2134 133.287 87.8445 132.999C87.5278 132.754 87.0972 132.582 86.5508 132.485L86.2681 132.443C84.9222 132.264 84.2178 131.657 84.1554 130.624C84.112 129.897 84.3298 129.3 84.8095 128.833C85.2886 128.367 86.005 128.055 86.9568 127.895L86.8643 126.358C86.858 126.253 86.8989 126.197 86.9877 126.192L87.2143 126.18C87.3031 126.175 87.3503 126.225 87.3566 126.33L87.446 127.815L87.8187 127.793L87.7293 126.309C87.723 126.204 87.7645 126.149 87.8533 126.144L88.0793 126.131C88.168 126.126 88.2159 126.176 88.2222 126.281L88.3116 127.766C89.3881 127.749 90.2253 127.908 90.824 128.243C91.4233 128.579 91.7412 129.062 91.7796 129.693C91.8054 130.122 91.6732 130.479 91.383 130.763C91.0928 131.048 90.6994 131.204 90.202 131.232C89.6695 131.262 89.2206 131.162 88.8555 130.932C88.4897 130.702 88.2952 130.39 88.2713 129.996C88.2518 129.672 88.3481 129.407 88.5577 129.202C88.768 128.997 89.0639 128.879 89.4447 128.849C89.4951 128.794 89.5177 128.734 89.5146 128.673C89.5102 128.612 89.4793 128.566 89.4195 128.534C89.3597 128.502 89.2854 128.488 89.1961 128.493C88.7969 128.516 88.4664 128.675 88.2033 128.972C87.9408 129.268 87.8218 129.617 87.8457 130.02C87.8709 130.44 88.0421 130.773 88.36 131.02C88.6773 131.265 89.2477 131.497 90.0711 131.714C90.6414 131.875 91.072 132.106 91.3616 132.406C91.6512 132.705 91.8098 133.084 91.8369 133.54C91.8797 134.248 91.6304 134.847 91.0903 135.334ZM105.253 138.718C101.08 138.648 97.7293 135.202 97.784 131.035C97.796 130.124 97.9704 129.252 98.2789 128.447C99.3793 125.573 102.192 123.55 105.452 123.605C109.626 123.675 112.976 127.122 112.922 131.288C112.866 135.455 109.426 138.789 105.253 138.718Z" fill="#00BBC4"/>
<path fill-rule="evenodd" clip-rule="evenodd" d="M92.5892 116.712C92.4199 116.712 92.26 116.605 92.2008 116.435C90.5477 111.7 90.542 108.109 90.542 107.958C90.5433 107.73 90.7277 107.548 90.955 107.548H90.9562C91.1829 107.548 91.366 107.733 91.366 107.961C91.3648 107.998 91.373 111.57 92.977 116.163C93.0525 116.378 92.9405 116.614 92.7258 116.688C92.6792 116.704 92.6339 116.712 92.5892 116.712Z" fill="#003CE5"/>
<path fill-rule="evenodd" clip-rule="evenodd" d="M129.966 111.286L69.9017 115.476L71.9275 146.232L132.363 142.779L129.966 111.286Z" fill="#00BBC4"/>
<path fill-rule="evenodd" clip-rule="evenodd" d="M126.009 115.851L127.751 138.756L75.9338 141.718L74.467 119.446L126.009 115.851Z" fill="#6CD8E3"/>
<path fill-rule="evenodd" clip-rule="evenodd" d="M122.172 127.112C122.934 127.1 123.561 127.706 123.576 128.468C123.592 129.235 122.98 129.869 122.212 129.88L115.251 129.981C114.489 129.992 113.862 129.386 113.846 128.625C113.831 127.858 114.443 127.224 115.211 127.212L122.172 127.112Z" fill="#00BBC4"/>
<path fill-rule="evenodd" clip-rule="evenodd" d="M121.518 143.272L120.592 118.808L73.2338 120.597L115.789 143.529L121.518 143.272Z" fill="black" fill-opacity="0.14902"/>
<path fill-rule="evenodd" clip-rule="evenodd" d="M116.879 119.809L48.3335 119.802L48.0156 154.872L116.919 155.742L116.879 119.809Z" fill="#00BBC4"/>
<path fill-rule="evenodd" clip-rule="evenodd" d="M75.4943 119.517C73.0631 119.7 70.9439 117.875 70.7597 115.438C70.2136 108.215 75.6409 104.003 81.2836 103.577C87.4492 103.111 91.4749 107.666 92.8815 110.431L93.7577 113.787L85.0466 114.503C84.9974 114.412 83.797 112.263 81.9508 112.402C81.1222 112.465 79.3972 112.595 79.5618 114.772C79.746 117.209 77.9248 119.333 75.4943 119.517Z" fill="#FECC6C"/>
<path fill-rule="evenodd" clip-rule="evenodd" d="M111.996 124.677L112.025 150.812L52.946 150.066L53.1765 124.671L111.996 124.677Z" fill="#6CD8E3"/>
<path fill-rule="evenodd" clip-rule="evenodd" d="M92.4658 138.362C92.0541 143.078 87.8627 146.577 83.1218 146.162C78.3814 145.745 74.8592 141.57 75.2709 136.854C75.6826 132.138 79.874 128.639 84.615 129.055C89.3553 129.471 92.8775 133.646 92.4658 138.362Z" fill="#00BBC4"/>
<path fill-rule="evenodd" clip-rule="evenodd" d="M106.013 136.248C106.883 136.264 107.576 136.981 107.561 137.851C107.546 138.721 106.828 139.415 105.957 139.399L98.0352 139.257C97.1658 139.241 96.4734 138.524 96.4878 137.655C96.5029 136.784 97.2206 136.09 98.0919 136.106L106.013 136.248Z" fill="#00BBC4"/>
<path fill-rule="evenodd" clip-rule="evenodd" d="M68.5646 135.86C69.434 135.876 70.1265 136.593 70.112 137.462C70.0975 138.333 69.3792 139.027 68.5086 139.011L60.5866 138.869C59.7166 138.853 59.0241 138.136 59.0392 137.266C59.0537 136.396 59.772 135.702 60.6426 135.718L68.5646 135.86Z" fill="#00BBC4"/>
</svg>
