<svg width="24" height="24" viewBox="0 0 24 24" fill="none" xmlns="http://www.w3.org/2000/svg">
<path fill-rule="evenodd" clip-rule="evenodd" d="M8.72111 6.75C8.57711 6.75 8.43311 6.805 8.32311 6.915L7.12811 8.109C5.93311 9.305 7.80011 12.765 9.51811 14.482C10.8541 15.818 13.2531 17.25 14.8121 17.25C15.2531 17.25 15.6271 17.135 15.8901 16.872L17.0851 15.677C17.3051 15.457 17.3051 15.101 17.0851 14.88L15.0941 12.889C14.9841 12.779 14.8401 12.724 14.6951 12.724C14.5799 12.724 14.4647 12.7592 14.3669 12.8296L14.2971 12.889C14.1551 13.015 14.0011 13.156 13.8371 13.312C13.6071 13.531 13.3781 13.623 13.1481 13.623C12.6366 13.623 12.126 13.1692 11.6146 12.6631L11.1719 12.216C10.5165 11.5317 10.0332 10.8472 10.6871 10.162L10.9801 9.84837C11.0254 9.79844 11.0691 9.74967 11.1111 9.702C11.3311 9.482 11.3311 9.126 11.1111 8.906L9.11911 6.915C9.01011 6.805 8.86611 6.75 8.72111 6.75ZM12.0893 2C16.9503 2 21.1873 5.55 21.8983 10.5C22.6803 15.956 18.8833 21.048 13.4173 21.872C12.9103 21.949 12.4073 21.986 11.9103 21.986C10.8523 21.986 9.82431 21.817 8.85531 21.504C8.51231 21.393 8.18431 21.244 7.85031 21.116C7.81331 21.103 7.76131 21.095 7.69431 21.095C7.26931 21.095 6.24731 21.387 4.63131 21.97C4.57631 21.989 4.51931 22 4.46231 22C4.42131 22 4.38131 21.995 4.34131 21.985C4.10331 21.926 3.94731 21.705 3.96331 21.469L3.97631 21.38L4.04231 21.104C4.39831 19.58 4.43031 18.623 4.14131 18.233L3.77531 17.737C3.71531 17.653 3.65631 17.568 3.60031 17.481C2.83931 16.313 2.31431 14.961 2.10231 13.486C1.31931 8.029 5.11531 2.937 10.5823 2.113C11.0893 2.037 11.5923 2 12.0893 2ZM12.0893 3C11.6383 3 11.1813 3.034 10.7313 3.102C5.81531 3.844 2.38831 8.438 3.09231 13.344C3.27831 14.642 3.73131 15.85 4.43831 16.937C4.48731 17.012 4.53731 17.084 4.58931 17.156L4.94631 17.64C5.38731 18.235 5.45331 19.176 5.14731 20.729C6.68346 20.2055 7.28643 20.1045 7.64039 20.0957L7.69431 20.095C7.88531 20.095 8.05331 20.124 8.20631 20.182L8.39419 20.255L8.58131 20.331C8.77331 20.409 8.96531 20.488 9.16331 20.553C10.0503 20.84 10.9753 20.986 11.9103 20.986C12.3613 20.986 12.8183 20.951 13.2683 20.884C18.1843 20.142 21.6113 15.548 20.9073 10.643C20.2823 6.285 16.4913 3 12.0893 3Z" fill="#202E44"/>
</svg>
